<svg xmlns="http://www.w3.org/2000/svg" xmlns:xlink="http://www.w3.org/1999/xlink" contentStyleType="text/css" data-diagram-type="DESCRIPTION" height="813px" preserveAspectRatio="none" style="width:612px;height:813px;background:#FFFFFF;" version="1.1" viewBox="0 0 612 813" width="612px" zoomAndPan="magnify"><defs/><g><!--cluster Recording Mode--><g class="cluster" data-qualified-name="Recording Mode" data-source-line="6" id="ent0002"><path d="M8.5,6 L137.3457,6 A3.75,3.75 0 0 1 139.8457,8.5 L146.8457,28.2969 L602.5,28.2969 A2.5,2.5 0 0 1 605,30.7969 L605,803.58 A2.5,2.5 0 0 1 602.5,806.08 L8.5,806.08 A2.5,2.5 0 0 1 6,803.58 L6,8.5 A2.5,2.5 0 0 1 8.5,6" fill="none" style="stroke:#000000;stroke-width:1.5;"/><line style="stroke:#000000;stroke-width:1.5;" x1="6" x2="146.8457" y1="28.2969" y2="28.2969"/><text fill="#000000" font-family="sans-serif" font-size="14" font-weight="bold" lengthAdjust="spacing" textLength="127.8457" x="10" y="20.9951">Recording Mode</text></g><!--entity le--><g class="entity" data-qualified-name="Recording Mode.le" data-source-line="7" id="ent0003"><ellipse cx="262.9978" cy="711.1796" fill="#F1F1F1" rx="130.3978" ry="78.8996" style="stroke:#181818;stroke-width:0.5;"/><text fill="#000000" font-family="sans-serif" font-size="14" font-weight="bold" lengthAdjust="spacing" textLength="139.3643" x="180.4112" y="666.1849">Low Energy Mode</text><line style="stroke:#181818;stroke-width:1;" x1="153.2931" x2="372.7026" y1="669.4867" y2="669.4867"/><text fill="#000000" font-family="sans-serif" font-size="14" lengthAdjust="spacing" textLength="140.9365" x="179.625" y="686.4818">- No more recording</text><text fill="#000000" font-family="sans-serif" font-size="14" lengthAdjust="spacing" textLength="129.377" x="185.4048" y="702.7787">- All hardware OFF</text><text fill="#000000" font-family="sans-serif" font-size="14" lengthAdjust="spacing" textLength="170.8711" x="164.6577" y="719.0756">- All GPIOs disconnected</text><line style="stroke:#181818;stroke-width:1;stroke-dasharray:1,2;" x1="136.0419" x2="389.9537" y1="726.3773" y2="726.3773"/><text fill="#000000" font-family="sans-serif" font-size="14" font-style="italic" lengthAdjust="spacing" textLength="190.9824" x="154.6021" y="743.3724">Device is only discoverable</text><text fill="#000000" font-family="sans-serif" font-size="14" font-style="italic" lengthAdjust="spacing" textLength="116.5664" x="191.8101" y="759.6693">and connectable</text></g><!--entity LB--><g class="entity" data-qualified-name="Recording Mode.LB" data-source-line="17" id="ent0004"><ellipse cx="74.0011" cy="356.0536" fill="#F1F1F1" rx="52.3911" ry="14.5236" style="stroke:#181818;stroke-width:0.5;"/><text fill="#000000" font-family="sans-serif" font-size="14" font-weight="bold" lengthAdjust="spacing" textLength="69.8496" x="39.0763" y="360.7021">Low Batt</text></g><!--entity DF--><g class="entity" data-qualified-name="Recording Mode.DF" data-source-line="21" id="ent0005"><ellipse cx="454.9995" cy="565.4636" fill="#F1F1F1" rx="51.1295" ry="14.5236" style="stroke:#181818;stroke-width:0.5;"/><text fill="#000000" font-family="sans-serif" font-size="14" font-weight="bold" lengthAdjust="spacing" textLength="68.0654" x="420.9668" y="570.1121">Disk Full</text></g><!--entity SU--><g class="entity" data-qualified-name="Recording Mode.SU" data-source-line="25" id="ent0006"><ellipse cx="168.9968" cy="55.5236" fill="#F1F1F1" rx="48.7368" ry="14.5236" style="stroke:#181818;stroke-width:0.5;"/><text fill="#000000" font-family="sans-serif" font-size="14" font-weight="bold" lengthAdjust="spacing" textLength="64.6816" x="136.656" y="60.1721">Start up</text></g><!--entity Rec--><g class="entity" data-qualified-name="Recording Mode.Rec" data-source-line="29" id="ent0007"><ellipse cx="338.9984" cy="243.3457" fill="#F1F1F1" rx="228.8784" ry="48.1757" style="stroke:#181818;stroke-width:0.5;"/><text fill="#000000" font-family="sans-serif" font-size="14" font-weight="bold" lengthAdjust="spacing" textLength="79.9053" x="299.0458" y="217.747">Recording</text><line style="stroke:#181818;stroke-width:1;" x1="137.1091" x2="540.8877" y1="221.0488" y2="221.0488"/><text fill="#000000" font-family="sans-serif" font-size="14" lengthAdjust="spacing" textLength="399.1436" x="137.2015" y="238.0439">The sound recording and proximity monitoring is enable.</text><text fill="#000000" font-family="sans-serif" font-size="14" lengthAdjust="spacing" textLength="333.334" x="172.3314" y="254.3408">It wait for a wake signal to save audio samples.</text></g><!--entity Sav--><g class="entity" data-qualified-name="Recording Mode.Sav" data-source-line="36" id="ent0008"><ellipse cx="488.0006" cy="459.6136" fill="#F1F1F1" rx="101.4806" ry="39.0336" style="stroke:#181818;stroke-width:0.5;"/><text fill="#000000" font-family="sans-serif" font-size="14" font-weight="bold" lengthAdjust="spacing" textLength="53.4434" x="455.1985" y="438.4345">Saving</text><line style="stroke:#181818;stroke-width:1;" x1="398.7892" x2="577.212" y1="441.7362" y2="441.7362"/><text fill="#000000" font-family="sans-serif" font-size="14" lengthAdjust="spacing" textLength="129.835" x="417.0027" y="458.7313">Audio samples are</text><text fill="#000000" font-family="sans-serif" font-size="14" lengthAdjust="spacing" textLength="155.4834" x="404.1785" y="475.0282">stored on the SD Card</text></g><!--entity CO--><g class="entity" data-qualified-name="Recording Mode.CO" data-source-line="43" id="ent0009"><ellipse cx="262.9979" cy="565.4596" fill="#F1F1F1" rx="72.0979" ry="16.8196" style="stroke:#181818;stroke-width:0.5;"/><text fill="#000000" font-family="sans-serif" font-size="14" font-weight="bold" lengthAdjust="spacing" textLength="111.6172" x="207.1893" y="570.108">Collar Opened</text></g><g class="entity" data-qualified-name="Recording Mode.N1" data-source-line="50" id="ent0012"><path d="M182.86,120.04 L182.86,145.1728 L347.1456,145.1728 L347.1456,130.04 L337.1456,120.04 L182.86,120.04" fill="#FEFFDD" style="stroke:#181818;stroke-width:0.5;"/><path d="M337.1456,120.04 L337.1456,130.04 L347.1456,130.04 L337.1456,120.04" fill="#FEFFDD" style="stroke:#181818;stroke-width:1;"/><text fill="#000000" font-family="sans-serif" font-size="13" lengthAdjust="spacing" textLength="143.2856" x="188.86" y="137.1069">See &#171;Setup&#187; use case</text></g><g class="entity" data-qualified-name="Recording Mode.N2" data-source-line="51" id="ent0013"><path d="M161.57,343.48 L161.57,368.6128 L364.4367,368.6128 L364.4367,353.48 L354.4367,343.48 L161.57,343.48" fill="#FEFFDD" style="stroke:#181818;stroke-width:0.5;"/><path d="M354.4367,343.48 L354.4367,353.48 L364.4367,353.48 L354.4367,343.48" fill="#FEFFDD" style="stroke:#181818;stroke-width:1;"/><text fill="#000000" font-family="sans-serif" font-size="13" lengthAdjust="spacing" textLength="181.8667" x="167.57" y="360.5469">See &#171;Open Collar&#187; use case</text></g><g class="entity" data-qualified-name="Recording Mode.N3" data-source-line="52" id="ent0014"><path d="M399.48,343.48 L399.48,368.6128 L588.5152,368.6128 L588.5152,353.48 L578.5152,343.48 L399.48,343.48" fill="#FEFFDD" style="stroke:#181818;stroke-width:0.5;"/><path d="M578.5152,343.48 L578.5152,353.48 L588.5152,353.48 L578.5152,343.48" fill="#FEFFDD" style="stroke:#181818;stroke-width:1;"/><text fill="#000000" font-family="sans-serif" font-size="13" lengthAdjust="spacing" textLength="168.0352" x="405.48" y="360.5469">See &#171;Wake up&#187; sequence</text></g><!--link Sav to DF--><g class="link" data-entity-1="ent0008" data-entity-2="ent0005" data-link-type="dependency" data-source-line="47" id="lnk10"><path d="M475.9,498.69 C470.12,516.87 465.3855,531.7713 461.1855,545.0013" fill="none" id="Sav-to-DF" style="stroke:#FF0000;stroke-width:1;stroke-dasharray:7,7;"/><polygon fill="#FF0000" points="459.37,550.72,465.9057,543.3522,460.8829,545.9544,458.2807,540.9316,459.37,550.72" style="stroke:#FF0000;stroke-width:1;"/></g><!--link Rec to LB--><g class="link" data-entity-1="ent0007" data-entity-2="ent0004" data-link-type="dependency" data-source-line="48" id="lnk11"><path d="M237.3,286.83 C188.55,307.2 139.4463,327.7072 107.3463,341.1172" fill="none" id="Rec-to-LB" style="stroke:#FF0000;stroke-width:1;stroke-dasharray:7,7;"/><polygon fill="#FF0000" points="101.81,343.43,111.6564,343.6516,106.4236,341.5026,108.5726,336.2699,101.81,343.43" style="stroke:#FF0000;stroke-width:1;"/></g><!--link SU to N1--><g class="link" data-entity-1="ent0006" data-entity-2="ent0012" data-link-type="association" data-source-line="53" id="lnk15"><path d="M185.72,69.6 C203.77,83.72 232.27,106.01 249.74,119.67" fill="none" id="SU-N1" style="stroke:#008000;stroke-width:1;"/></g><!--link N1 to Rec--><g class="link" data-entity-1="ent0012" data-entity-2="ent0007" data-link-type="dependency" data-source-line="54" id="lnk16"><path d="M273.2,145.66 C281.41,157.72 291.1748,172.0794 303.5648,190.2894" fill="none" id="N1-to-Rec" style="stroke:#008000;stroke-width:1;"/><polygon fill="#008000" points="306.94,195.25,305.1843,185.5589,304.1273,191.1161,298.5701,190.0592,306.94,195.25" style="stroke:#008000;stroke-width:1;"/></g><!--link Rec to N2--><g class="link" data-entity-1="ent0007" data-entity-2="ent0013" data-link-type="association" data-source-line="55" id="lnk17"><path d="M306.77,291.3 C293.66,310.39 279.62,330.85 271.07,343.3" fill="none" id="Rec-N2" style="stroke:#008000;stroke-width:1;"/></g><!--link N2 to CO--><g class="link" data-entity-1="ent0013" data-entity-2="ent0009" data-link-type="dependency" data-source-line="56" id="lnk18"><path d="M263,369.1 C263,404.46 263,501.99 263,542.22" fill="none" id="N2-to-CO" style="stroke:#008000;stroke-width:1;"/><polygon fill="#008000" points="263,548.22,267,539.22,263,543.22,259,539.22,263,548.22" style="stroke:#008000;stroke-width:1;"/></g><!--link CO to le--><g class="link" data-entity-1="ent0009" data-entity-2="ent0003" data-link-type="dependency" data-source-line="58" id="lnk19"><path d="M263,582.67 C263,595.07 263,607.18 263,625.88" fill="none" id="CO-to-le" style="stroke:#008000;stroke-width:1;"/><polygon fill="#008000" points="263,631.88,267,622.88,263,626.88,259,622.88,263,631.88" style="stroke:#008000;stroke-width:1;"/></g><!--link SU to LB--><g class="link" data-entity-1="ent0006" data-entity-2="ent0004" data-link-type="dependency" data-source-line="59" id="lnk20"><path d="M159.36,69.89 C142.71,93.74 108.82,145.76 93,195.18 C76.3,247.35 74.0599,307.3501 73.9199,335.4201" fill="none" id="SU-to-LB" style="stroke:#FF0000;stroke-width:1;"/><polygon fill="#FF0000" points="73.89,341.42,77.9348,332.4401,73.9149,336.4201,69.9349,332.4002,73.89,341.42" style="stroke:#FF0000;stroke-width:1;"/></g><!--link DF to le--><g class="link" data-entity-1="ent0005" data-entity-2="ent0003" data-link-type="dependency" data-source-line="60" id="lnk21"><path d="M437.62,579.47 C416.39,595.36 383.8033,619.7544 349.0433,645.7744" fill="none" id="DF-to-le" style="stroke:#FF0000;stroke-width:2;"/><polygon fill="#FF0000" points="344.24,649.37,353.842,647.1788,348.2428,646.3737,349.0479,640.7744,344.24,649.37" style="stroke:#FF0000;stroke-width:2;"/></g><!--link LB to le--><g class="link" data-entity-1="ent0004" data-entity-2="ent0003" data-link-type="dependency" data-source-line="61" id="lnk22"><path d="M79,370.96 C92.19,406.99 129.87,505.83 173,582.28 C183.74,601.32 193.1858,616.11 205.8058,634.19" fill="none" id="LB-to-le" style="stroke:#FF0000;stroke-width:2;"/><polygon fill="#FF0000" points="209.24,639.11,207.3687,629.4406,206.3782,635.01,200.8087,634.0195,209.24,639.11" style="stroke:#FF0000;stroke-width:2;"/></g><!--link Rec to N3--><g class="link" data-entity-1="ent0007" data-entity-2="ent0014" data-link-type="association" data-source-line="63" id="lnk23"><path d="M391.24,290.66 C417.46,309.85 447.87,330.54 469.06,343.14" fill="none" id="Rec-N3" style="stroke:#008000;stroke-width:1;"/></g><!--link N3 to Rec--><g class="link" data-entity-1="ent0014" data-entity-2="ent0007" data-link-type="dependency" data-source-line="66" id="lnk26"><path d="M485.92,343 C471.58,330.03 448.0318,312.0372 419.8018,292.4772" fill="none" id="N3-to-Rec" style="stroke:#008000;stroke-width:1;"/><polygon fill="#008000" points="414.87,289.06,419.9896,297.4736,418.9799,291.9076,424.5459,290.8979,414.87,289.06" style="stroke:#008000;stroke-width:1;"/></g><!--link N3 to Sav--><g class="link" data-entity-1="ent0014" data-entity-2="ent0008" data-link-type="dependency" data-source-line="64" id="lnk24"><path d="M484.69,369.1 C480.37,381.71 477.9132,396.17 477.8732,414.34" fill="none" id="N3-to-Sav" style="stroke:#008000;stroke-width:1;"/><polygon fill="#008000" points="477.86,420.34,481.8798,411.3488,477.871,415.34,473.8798,411.3312,477.86,420.34" style="stroke:#008000;stroke-width:1;"/></g><!--link Sav to N3--><g class="link" data-entity-1="ent0008" data-entity-2="ent0014" data-link-type="association" data-source-line="65" id="lnk25"><path d="M503.34,420.79 C505.56,402.51 505.46,381.81 502.4,369.1" fill="none" id="Sav-N3" style="stroke:#008000;stroke-width:1;"/></g><!--SRC=[bLF1Zjem4BtdAqRqi700TK6zj2ZI0gLQYKArTDL3rOE9PuE5OwUs0qNL_dl7IGW9IIlL1-JulNb-RppOWr0fCom1mzJ1OWhltWR1Nd04J59t1eusCY9rGglW3YI-E70QZ8Zt3hWm6EL8aBBem6A4tXD6sd2XOlYiEVRWTm2qCeiHiqZry3q_y6kw2rVw11yLclYSqojeIElw0MiDYJO8vY9UmnwaX3qp_CI8i5akRw1FNnutbfpQI2j5Rf5NX16jgnaHBl0e8WHXGIjvBcgEQDXEOft658TIh89-D5AkPksKC-PSZThWBvPD_aBO0ompASk21ddxt2Hl7JCEihIBIu_H93-r6rZlzDSzWjKP1Qmw3JvkQlGlaGWQXqGhuRJn0FK9bU_022g1HmSd9XoyQ0ECjWVI4x5YqW-DPKS4bd7XjqagqOuw0xBZJK9s_AlZXxeSq0XKY2MRoEafmL6gxGBcD2HTzyqtpUlcMafcO9EYmaP1dumCQ6f2w2-M0tWZXSBtfkJqgRKbk9hLmHnLsj5_Oui8qobiqMKfXA5t0Dv23vY5zNsRwJr0wQV57xVvttp32ssBFpDKKScTb06U1zG_hazgI9_hU_efZCO6KHLDo4yBJbYckkKKfrUTSQVEkAuptmpQdBkBqeNHkYWlos697N2HPzZgUGxwDoeUv5fBu0U_6UsqB6c-yj-qpioJpioJUkPyN3fC- -F_4iglRf22rpy0]--></g></svg>