<svg xmlns="http://www.w3.org/2000/svg" xmlns:xlink="http://www.w3.org/1999/xlink" contentStyleType="text/css" data-diagram-type="DESCRIPTION" height="454px" preserveAspectRatio="none" style="width:960px;height:454px;background:#FFFFFF;" version="1.1" viewBox="0 0 960 454" width="960px" zoomAndPan="magnify"><defs/><g><!--cluster Setup--><g class="cluster" data-qualified-name="Setup" data-source-line="8" id="ent0003"><path d="M254.17,6 L301.4288,6 A3.75,3.75 0 0 1 303.9288,8.5 L310.9288,28.2969 L950.81,28.2969 A2.5,2.5 0 0 1 953.31,30.7969 L953.31,444.5 A2.5,2.5 0 0 1 950.81,447 L254.17,447 A2.5,2.5 0 0 1 251.67,444.5 L251.67,8.5 A2.5,2.5 0 0 1 254.17,6" fill="none" style="stroke:#000000;stroke-width:1.5;"/><line style="stroke:#000000;stroke-width:1.5;" x1="251.67" x2="310.9288" y1="28.2969" y2="28.2969"/><text fill="#000000" font-family="sans-serif" font-size="14" font-weight="bold" lengthAdjust="spacing" textLength="46.2588" x="255.67" y="20.9951">Setup</text></g><!--entity LF--><g class="entity" data-qualified-name="Setup.LF" data-source-line="9" id="ent0004"><ellipse cx="428.7344" cy="79.9957" fill="#F1F1F1" rx="122.5044" ry="39.0357" style="stroke:#181818;stroke-width:0.5;"/><text fill="#000000" font-family="sans-serif" font-size="14" font-weight="bold" lengthAdjust="spacing" textLength="64.9551" x="388.8777" y="58.8201">Look for</text><line style="stroke:#181818;stroke-width:1;" x1="320.8265" x2="536.6422" y1="62.1219" y2="62.1219"/><text fill="#000000" font-family="sans-serif" font-size="14" lengthAdjust="spacing" textLength="182.2666" x="330.222" y="79.117">Starts a BLE Scan process</text><text fill="#000000" font-family="sans-serif" font-size="14" lengthAdjust="spacing" textLength="188.665" x="327.0227" y="95.4139">to discover nearby devices</text></g><!--entity DD--><g class="entity" data-qualified-name="Setup.DD" data-source-line="15" id="ent0005"><ellipse cx="789.0566" cy="82.9962" fill="#F1F1F1" rx="82.6866" ry="42.1762" style="stroke:#181818;stroke-width:0.5;"/><text fill="#000000" font-family="sans-serif" font-size="14" font-weight="bold" lengthAdjust="spacing" textLength="95.4434" x="736.2661" y="66.4469">scan results</text><line style="stroke:#181818;stroke-width:1;" x1="711.5548" x2="866.5584" y1="69.7486" y2="69.7486"/><text fill="#000000" font-family="sans-serif" font-size="14" lengthAdjust="spacing" textLength="115.7188" x="726.1284" y="86.7437">Provides a list of</text><text fill="#000000" font-family="sans-serif" font-size="14" lengthAdjust="spacing" textLength="106.7227" x="728.4013" y="103.0406">nearby devices</text></g><!--entity CT--><g class="entity" data-qualified-name="Setup.CT" data-source-line="21" id="ent0006"><ellipse cx="428.7257" cy="192.9986" fill="#F1F1F1" rx="122.7757" ry="39.1686" style="stroke:#181818;stroke-width:0.5;"/><text fill="#000000" font-family="sans-serif" font-size="14" font-weight="bold" lengthAdjust="spacing" textLength="88.3545" x="368.2644" y="174.5732">Connect To</text><line style="stroke:#181818;stroke-width:1;" x1="316.4713" x2="540.9801" y1="177.8749" y2="177.8749"/><text fill="#000000" font-family="sans-serif" font-size="14" lengthAdjust="spacing" textLength="188.3984" x="318.2425" y="194.87">Connecting to the choosen</text><text fill="#000000" font-family="sans-serif" font-size="14" lengthAdjust="spacing" textLength="159.2363" x="332.8235" y="211.1669">"Speak No Evil" device</text></g><!--entity SD--><g class="entity" data-qualified-name="Setup.SD" data-source-line="27" id="ent0007"><ellipse cx="789.0644" cy="199.0028" fill="#F1F1F1" rx="148.2544" ry="39.1228" style="stroke:#181818;stroke-width:0.5;"/><text fill="#000000" font-family="sans-serif" font-size="14" font-weight="bold" lengthAdjust="spacing" textLength="83.8291" x="738.1441" y="177.9692">Connected</text><line style="stroke:#181818;stroke-width:1;" x1="657.9117" x2="920.2171" y1="181.271" y2="181.271"/><text fill="#000000" font-family="sans-serif" font-size="14" lengthAdjust="spacing" textLength="183.0527" x="688.5323" y="198.2661">- Start a service discovery</text><text fill="#000000" font-family="sans-serif" font-size="14" lengthAdjust="spacing" textLength="228.7646" x="665.6763" y="214.563">- Enable mandatory notifications</text></g><!--entity ED--><g class="entity" data-qualified-name="Setup.ED" data-source-line="33" id="ent0008"><ellipse cx="428.7298" cy="317.004" fill="#F1F1F1" rx="161.0698" ry="49.424" style="stroke:#181818;stroke-width:0.5;"/><text fill="#000000" font-family="sans-serif" font-size="14" font-weight="bold" lengthAdjust="spacing" textLength="79.9053" x="383.2683" y="285.3383">Recording</text><line style="stroke:#181818;stroke-width:1;" x1="297.8245" x2="559.6351" y1="288.6401" y2="288.6401"/><text fill="#000000" font-family="sans-serif" font-size="14" lengthAdjust="spacing" textLength="184.543" x="330.9495" y="305.6352">- Wait for SD Card present</text><text fill="#000000" font-family="sans-serif" font-size="14" lengthAdjust="spacing" textLength="249.1973" x="298.6223" y="321.9321">- Enable Hardware (FAT fs, SPI, I2S)</text><text fill="#000000" font-family="sans-serif" font-size="14" lengthAdjust="spacing" textLength="115.0762" x="365.6829" y="338.2289">- Start recording</text></g><!--entity dis--><g class="entity" data-qualified-name="Setup.dis" data-source-line="40" id="ent0009"><ellipse cx="428.7329" cy="415.9966" fill="#F1F1F1" rx="62.6329" ry="14.9266" style="stroke:#181818;stroke-width:0.5;"/><text fill="#000000" font-family="sans-serif" font-size="14" font-weight="bold" lengthAdjust="spacing" textLength="87.0898" x="385.188" y="420.645">Disconnect</text></g><!--entity a1--><g class="entity" data-qualified-name="a1" data-source-line="6" id="ent0002"><ellipse cx="37.3325" cy="242.35" fill="#F1F1F1" rx="8" ry="8" style="stroke:#181818;stroke-width:0.5;"/><path d="M37.3325,250.35 L37.3325,277.35 M24.3325,258.35 L50.3325,258.35 M37.3325,277.35 L24.3325,292.35 M37.3325,277.35 L50.3325,292.35" fill="none" style="stroke:#181818;stroke-width:0.5;"/><text fill="#000000" font-family="sans-serif" font-size="14" lengthAdjust="spacing" textLength="62.665" x="6" y="306.8451">Operator</text></g><!--link a1 to LF--><g class="link" data-entity-1="ent0002" data-entity-2="ent0004" data-link-type="dependency" data-source-line="45" id="lnk10"><path d="M62.14,233.65 C70.93,221.72 81.7,209.27 93.67,200 C160.76,147.99 246.5445,118.6465 316.8645,101.3065" fill="none" id="a1-to-LF" style="stroke:#181818;stroke-width:1;"/><polygon fill="#181818" points="322.69,99.87,312.9941,98.1411,317.8354,101.0671,314.9094,105.9084,322.69,99.87" style="stroke:#181818;stroke-width:1;"/><text fill="#000000" font-family="sans-serif" font-size="13" lengthAdjust="spacing" textLength="65.73" x="132.17" y="125.0669">Cmd Scan</text></g><!--link LF to DD--><g class="link" data-entity-1="ent0004" data-entity-2="ent0005" data-link-type="dependency" data-source-line="46" id="lnk11"><path d="M551.55,81.02 C602.47,81.45 654.3102,81.8801 700.0402,82.2601" fill="none" id="LF-to-DD" style="stroke:#181818;stroke-width:1;stroke-dasharray:7,7;"/><polygon fill="#181818" points="706.04,82.31,697.0735,78.2354,701.0402,82.2685,697.0071,86.2351,706.04,82.31" style="stroke:#181818;stroke-width:1;"/></g><!--link a1 to CT--><g class="link" data-entity-1="ent0002" data-entity-2="ent0006" data-link-type="dependency" data-source-line="47" id="lnk12"><path d="M69.14,261.17 C77.07,258.61 85.63,256.03 93.67,254 C167.26,235.4 245.4079,221.0436 310.7979,210.4036" fill="none" id="a1-to-CT" style="stroke:#181818;stroke-width:1;"/><polygon fill="#181818" points="316.72,209.44,307.1944,206.9374,311.7849,210.243,308.4792,214.8335,316.72,209.44" style="stroke:#181818;stroke-width:1;"/><text fill="#000000" font-family="sans-serif" font-size="13" lengthAdjust="spacing" textLength="40.1045" x="144.67" y="221.0669">Select</text></g><!--link CT to SD--><g class="link" data-entity-1="ent0006" data-entity-2="ent0007" data-link-type="dependency" data-source-line="48" id="lnk13"><path d="M551.8,195.04 C580.39,195.52 605.1608,195.9406 634.7308,196.4306" fill="none" id="CT-to-SD" style="stroke:#181818;stroke-width:1;stroke-dasharray:7,7;"/><polygon fill="#181818" points="640.73,196.53,631.7975,192.3814,635.7307,196.4472,631.665,200.3803,640.73,196.53" style="stroke:#181818;stroke-width:1;"/></g><!--link a1 to ED--><g class="link" data-entity-1="ent0002" data-entity-2="ent0008" data-link-type="dependency" data-source-line="50" id="lnk14"><path d="M68.89,275.53 C113.8,280.72 194.6997,290.0713 271.7197,298.9713" fill="none" id="a1-to-ED" style="stroke:#181818;stroke-width:1;"/><polygon fill="#181818" points="277.68,299.66,269.1987,294.6533,272.7131,299.086,268.2803,302.6004,277.68,299.66" style="stroke:#181818;stroke-width:1;"/><text fill="#000000" font-family="sans-serif" font-size="13" lengthAdjust="spacing" textLength="140.2261" x="94.67" y="275.0669">Cmd: Start Recording</text></g><!--link a1 to dis--><g class="link" data-entity-1="ent0002" data-entity-2="ent0009" data-link-type="dependency" data-source-line="51" id="lnk15"><path d="M68.89,301.47 C76.62,308.06 85.15,314.67 93.67,320 C155.12,358.43 174.16,363.43 243.67,384 C285.65,396.43 328.6045,403.8329 365.4345,408.8329" fill="none" id="a1-to-dis" style="stroke:#181818;stroke-width:1;"/><polygon fill="#181818" points="371.38,409.64,362.9999,404.4656,366.4254,408.9674,361.9237,412.3929,371.38,409.64" style="stroke:#181818;stroke-width:1;"/><text fill="#000000" font-family="sans-serif" font-size="13" lengthAdjust="spacing" textLength="72.2173" x="128.67" y="316.0669">Disconnect</text></g><!--SRC=[TLB1Qjj04BtlLmmvD2qaeIdqOegXjHmQC6s833sK7iQx8tkHl2jcrowczDyxeoXorQXx4BipJ_FUl9bK-z0YunuOGvseXVTlZTbvHq3xDf_0KRBis-nZC0rL6N84zjjT1kUPR1StQ7Da-DeIerum0TuQqwAjSKjGKZwqyCk0d4CYYubWTGVVku2U3vlvAiOQgiX3x5hEy2WpSfQYy6crXD9YW9QZfPG6XAXoFjbu98P0o1jLVlI2wI0_HkH5CIPFMf4f7PgSfWKyS3oA9ogXyIb3h8RKc0qcw1RhCTqYXY3EmJfEa_Lv7xRQLjuHs5sCYSA0k2XRmXg-H5WUVNFHaqzGbyKaDRbfvkidfwNBHAmb1rDFVs6M0JSDmHw3qt6V8CJiAszHbs7Ax-K_AXx9HdRIt_zKV4EVTHjK_mBPoRX9-iylHNoMx4zaWjTt7zTGfIie7-wluFvT-UP5LpoY7KkKFiSQ2ssyCwj7_vOrlnMXSztT6Ipshjj48w-Rcxdir7DQnZsJdM_qLxbhKjemb_hLlC1cK7GJWs4Uy0eU2TtfkOXOrd7CUkrdotg02fOoPvMNNUXCC6J8_G40]--></g></svg>