<?plantuml 1.2026.1beta2?><svg xmlns="http://www.w3.org/2000/svg" xmlns:xlink="http://www.w3.org/1999/xlink" contentStyleType="text/css" data-diagram-type="SEQUENCE" height="1028px" preserveAspectRatio="none" style="width:488px;height:1028px;background:#FFFFFF;" version="1.1" viewBox="0 0 488 1028" width="488px" zoomAndPan="magnify"><defs/><g><g><title>t5848.c</title><rect fill="#FFFFFF" height="893.125" style="stroke:#181818;stroke-width:1;" width="10" x="171.7563" y="82.5625"/></g><rect fill="none" height="318" style="stroke:#000000;stroke-width:1.5;" width="391.2534" x="91" y="416.7578"/><rect fill="none" height="116.2031" style="stroke:#000000;stroke-width:1.5;" width="292.8423" x="113.1235" y="505.1563"/><g class="participant-lifeline" data-entity-uid="part1" data-qualified-name="Write" id="part1-lifeline"><g><title>t5848.c</title><rect fill="#000000" fill-opacity="0.00000" height="957.3906" width="8" x="172.7563" y="36.2969"/><line style="stroke:#181818;stroke-width:0.5;stroke-dasharray:5,5;" x1="176.1235" x2="176.1235" y1="36.2969" y2="993.6875"/></g></g><g class="participant-lifeline" data-entity-uid="part2" data-qualified-name="GPIO" id="part2-lifeline"><g><title>GPIO HAL</title><rect fill="#000000" fill-opacity="0.00000" height="957.3906" width="8" x="407.8564" y="36.2969"/><line style="stroke:#181818;stroke-width:0.5;stroke-dasharray:5,5;" x1="411.4595" x2="411.4595" y1="36.2969" y2="993.6875"/></g></g><g class="participant participant-head" data-entity-uid="part1" data-qualified-name="Write" id="part1-head"><rect fill="#E3E3E3" height="30.2969" rx="2.5" ry="2.5" style="stroke:#181818;stroke-width:0.5;" width="67.2656" x="143.1235" y="5"/><text fill="#000000" font-family="sans-serif" font-size="14" lengthAdjust="spacing" textLength="53.2656" x="150.1235" y="24.9951">t5848.c</text></g><g class="participant participant-tail" data-entity-uid="part1" data-qualified-name="Write" id="part1-tail"><rect fill="#E3E3E3" height="30.2969" rx="2.5" ry="2.5" style="stroke:#181818;stroke-width:0.5;" width="67.2656" x="143.1235" y="992.6875"/><text fill="#000000" font-family="sans-serif" font-size="14" lengthAdjust="spacing" textLength="53.2656" x="150.1235" y="1012.6826">t5848.c</text></g><g class="participant participant-head" data-entity-uid="part2" data-qualified-name="GPIO" id="part2-head"><rect fill="#E3E3E3" height="30.2969" rx="2.5" ry="2.5" style="stroke:#181818;stroke-width:0.5;" width="80.7939" x="371.4595" y="5"/><text fill="#000000" font-family="sans-serif" font-size="14" lengthAdjust="spacing" textLength="66.7939" x="378.4595" y="24.9951">GPIO HAL</text></g><g class="participant participant-tail" data-entity-uid="part2" data-qualified-name="GPIO" id="part2-tail"><rect fill="#E3E3E3" height="30.2969" rx="2.5" ry="2.5" style="stroke:#181818;stroke-width:0.5;" width="80.7939" x="371.4595" y="992.6875"/><text fill="#000000" font-family="sans-serif" font-size="14" lengthAdjust="spacing" textLength="66.7939" x="378.4595" y="1012.6826">GPIO HAL</text></g><g><title>t5848.c</title><rect fill="#FFFFFF" height="893.125" style="stroke:#181818;stroke-width:1;" width="10" x="171.7563" y="82.5625"/></g><g class="message" data-entity-1="part1" data-entity-2="part1" id="msg1"><polygon fill="#181818" points="159.7563,78.5625,169.7563,82.5625,159.7563,86.5625,163.7563,82.5625" style="stroke:#181818;stroke-width:1;"/><line style="stroke:#181818;stroke-width:1;" x1="0" x2="165.7563" y1="82.5625" y2="82.5625"/><text fill="#000000" font-family="sans-serif" font-size="13" lengthAdjust="spacing" textLength="134.6211" x="7" y="62.3638">t5848_reg(reg, data,</text><text fill="#000000" font-family="sans-serif" font-size="13" lengthAdjust="spacing" textLength="152.7563" x="7" y="77.4966">&amp;clk_gpio, &amp;thsel_gpio)</text></g><path d="M109,95.5625 L109,120.5625 L243,120.5625 L243,105.5625 L233,95.5625 L109,95.5625" fill="#FAFAFA" style="stroke:#181818;stroke-width:0.5;"/><path d="M233,95.5625 L233,105.5625 L243,105.5625 L233,95.5625" fill="#FAFAFA" style="stroke:#181818;stroke-width:0.5;"/><text fill="#000000" font-family="sans-serif" font-size="13" lengthAdjust="spacing" textLength="113.0391" x="115" y="112.6294">Send PRE symbol</text><g class="message" data-entity-1="part1" data-entity-2="part2" id="msg2"><polygon fill="#181818" points="399.8564,142.8281,409.8564,146.8281,399.8564,150.8281,403.8564,146.8281" style="stroke:#181818;stroke-width:1;"/><line style="stroke:#181818;stroke-width:1;" x1="181.7563" x2="405.8564" y1="146.8281" y2="146.8281"/><text fill="#000000" font-family="sans-serif" font-size="13" lengthAdjust="spacing" textLength="193.8574" x="188.7563" y="141.7622">gpio_pin_set_dt(thsel_gpio, 0)</text></g><g class="message" data-entity-1="part1" data-entity-2="part1" id="msg3"><line style="stroke:#181818;stroke-width:1;" x1="181.7563" x2="223.7563" y1="175.9609" y2="175.9609"/><line style="stroke:#181818;stroke-width:1;" x1="223.7563" x2="223.7563" y1="175.9609" y2="188.9609"/><line style="stroke:#181818;stroke-width:1;" x1="182.7563" x2="223.7563" y1="188.9609" y2="188.9609"/><polygon fill="#181818" points="192.7563,184.9609,182.7563,188.9609,192.7563,192.9609,188.7563,188.9609" style="stroke:#181818;stroke-width:1;"/><text fill="#000000" font-family="sans-serif" font-size="13" lengthAdjust="spacing" textLength="183.9106" x="188.7563" y="170.895">t5848_clock_bitbang(T_PRE)</text></g><path d="M103,201.9609 L103,226.9609 L249,226.9609 L249,211.9609 L239,201.9609 L103,201.9609" fill="#FAFAFA" style="stroke:#181818;stroke-width:0.5;"/><path d="M239,201.9609 L239,211.9609 L249,211.9609 L239,201.9609" fill="#FAFAFA" style="stroke:#181818;stroke-width:0.5;"/><text fill="#000000" font-family="sans-serif" font-size="13" lengthAdjust="spacing" textLength="125.0425" x="109" y="219.0278">Send PILOT symbol</text><g class="message" data-entity-1="part1" data-entity-2="part2" id="msg4"><polygon fill="#181818" points="399.8564,249.2266,409.8564,253.2266,399.8564,257.2266,403.8564,253.2266" style="stroke:#181818;stroke-width:1;"/><line style="stroke:#181818;stroke-width:1;" x1="181.7563" x2="405.8564" y1="253.2266" y2="253.2266"/><text fill="#000000" font-family="sans-serif" font-size="13" lengthAdjust="spacing" textLength="193.8574" x="188.7563" y="248.1606">gpio_pin_set_dt(thsel_gpio, 1)</text></g><g class="message" data-entity-1="part1" data-entity-2="part1" id="msg5"><line style="stroke:#181818;stroke-width:1;" x1="181.7563" x2="223.7563" y1="282.3594" y2="282.3594"/><line style="stroke:#181818;stroke-width:1;" x1="223.7563" x2="223.7563" y1="282.3594" y2="295.3594"/><line style="stroke:#181818;stroke-width:1;" x1="182.7563" x2="223.7563" y1="295.3594" y2="295.3594"/><polygon fill="#181818" points="192.7563,291.3594,182.7563,295.3594,192.7563,299.3594,188.7563,295.3594" style="stroke:#181818;stroke-width:1;"/><text fill="#000000" font-family="sans-serif" font-size="13" lengthAdjust="spacing" textLength="195.9141" x="188.7563" y="277.2935">t5848_clock_bitbang(T_PILOT)</text></g><path d="M101,308.3594 L101,333.3594 L252,333.3594 L252,318.3594 L242,308.3594 L101,308.3594" fill="#FAFAFA" style="stroke:#181818;stroke-width:0.5;"/><path d="M242,308.3594 L242,318.3594 L252,318.3594 L242,308.3594" fill="#FAFAFA" style="stroke:#181818;stroke-width:0.5;"/><text fill="#000000" font-family="sans-serif" font-size="13" lengthAdjust="spacing" textLength="130.2285" x="107" y="325.4263">Send SPACE symbol</text><g class="message" data-entity-1="part1" data-entity-2="part2" id="msg6"><polygon fill="#181818" points="399.8564,355.625,409.8564,359.625,399.8564,363.625,403.8564,359.625" style="stroke:#181818;stroke-width:1;"/><line style="stroke:#181818;stroke-width:1;" x1="181.7563" x2="405.8564" y1="359.625" y2="359.625"/><text fill="#000000" font-family="sans-serif" font-size="13" lengthAdjust="spacing" textLength="193.8574" x="188.7563" y="354.5591">gpio_pin_set_dt(thsel_gpio, 0)</text></g><g class="message" data-entity-1="part1" data-entity-2="part1" id="msg7"><line style="stroke:#181818;stroke-width:1;" x1="181.7563" x2="223.7563" y1="388.7578" y2="388.7578"/><line style="stroke:#181818;stroke-width:1;" x1="223.7563" x2="223.7563" y1="388.7578" y2="401.7578"/><line style="stroke:#181818;stroke-width:1;" x1="182.7563" x2="223.7563" y1="401.7578" y2="401.7578"/><polygon fill="#181818" points="192.7563,397.7578,182.7563,401.7578,192.7563,405.7578,188.7563,401.7578" style="stroke:#181818;stroke-width:1;"/><text fill="#000000" font-family="sans-serif" font-size="13" lengthAdjust="spacing" textLength="201.1001" x="188.7563" y="383.6919">t5848_clock_bitbang(T_SPACE)</text></g><path d="M91,416.7578 L167.624,416.7578 L167.624,423.8906 L157.624,433.8906 L91,433.8906 L91,416.7578" fill="#EEEEEE" style="stroke:#000000;stroke-width:1.5;"/><rect fill="none" height="318" style="stroke:#000000;stroke-width:1.5;" width="391.2534" x="91" y="416.7578"/><text fill="#000000" font-family="sans-serif" font-size="13" font-weight="bold" lengthAdjust="spacing" textLength="31.624" x="106" y="429.8247">loop</text><text fill="#000000" font-family="sans-serif" font-size="11" font-weight="bold" lengthAdjust="spacing" textLength="134.6694" x="182.624" y="428.9683">[for each register bit]</text><path d="M139,438.8906 L139,463.8906 L213,463.8906 L213,448.8906 L203,438.8906 L139,438.8906" fill="#FAFAFA" style="stroke:#181818;stroke-width:0.5;"/><path d="M203,438.8906 L203,448.8906 L213,448.8906 L203,438.8906" fill="#FAFAFA" style="stroke:#181818;stroke-width:0.5;"/><text fill="#000000" font-family="sans-serif" font-size="13" lengthAdjust="spacing" textLength="53.8345" x="145" y="455.9575">Send bit</text><g class="message" data-entity-1="part1" data-entity-2="part2" id="msg8"><polygon fill="#181818" points="399.8564,486.1563,409.8564,490.1563,399.8564,494.1563,403.8564,490.1563" style="stroke:#181818;stroke-width:1;"/><line style="stroke:#181818;stroke-width:1;" x1="181.7563" x2="405.8564" y1="490.1563" y2="490.1563"/><text fill="#000000" font-family="sans-serif" font-size="13" lengthAdjust="spacing" textLength="193.8574" x="188.7563" y="485.0903">gpio_pin_set_dt(thsel_gpio, 1)</text></g><path d="M113.1235,505.1563 L177.5664,505.1563 L177.5664,512.2891 L167.5664,522.2891 L113.1235,522.2891 L113.1235,505.1563" fill="#EEEEEE" style="stroke:#000000;stroke-width:1.5;"/><rect fill="none" height="116.2031" style="stroke:#000000;stroke-width:1.5;" width="292.8423" x="113.1235" y="505.1563"/><text fill="#000000" font-family="sans-serif" font-size="13" font-weight="bold" lengthAdjust="spacing" textLength="19.4429" x="128.1235" y="518.2231">alt</text><text fill="#000000" font-family="sans-serif" font-size="11" font-weight="bold" lengthAdjust="spacing" textLength="60.7041" x="192.5664" y="517.3667">[bit == 1]</text><g class="message" data-entity-1="part1" data-entity-2="part1" id="msg9"><line style="stroke:#181818;stroke-width:1;" x1="181.7563" x2="223.7563" y1="543.4219" y2="543.4219"/><line style="stroke:#181818;stroke-width:1;" x1="223.7563" x2="223.7563" y1="543.4219" y2="556.4219"/><line style="stroke:#181818;stroke-width:1;" x1="182.7563" x2="223.7563" y1="556.4219" y2="556.4219"/><polygon fill="#181818" points="192.7563,552.4219,182.7563,556.4219,192.7563,560.4219,188.7563,556.4219" style="stroke:#181818;stroke-width:1;"/><text fill="#000000" font-family="sans-serif" font-size="13" lengthAdjust="spacing" textLength="186.9956" x="188.7563" y="538.356">t5848_clock_bitbang(T_ONE)</text></g><line style="stroke:#000000;stroke-width:1;stroke-dasharray:2,2;" x1="113.1235" x2="405.9658" y1="565.4219" y2="565.4219"/><text fill="#000000" font-family="sans-serif" font-size="11" font-weight="bold" lengthAdjust="spacing" textLength="60.7041" x="118.1235" y="575.6323">[bit == 0]</text><g class="message" data-entity-1="part1" data-entity-2="part1" id="msg10"><line style="stroke:#181818;stroke-width:1;" x1="181.7563" x2="223.7563" y1="600.3594" y2="600.3594"/><line style="stroke:#181818;stroke-width:1;" x1="223.7563" x2="223.7563" y1="600.3594" y2="613.3594"/><line style="stroke:#181818;stroke-width:1;" x1="182.7563" x2="223.7563" y1="613.3594" y2="613.3594"/><polygon fill="#181818" points="192.7563,609.3594,182.7563,613.3594,192.7563,617.3594,188.7563,613.3594" style="stroke:#181818;stroke-width:1;"/><text fill="#000000" font-family="sans-serif" font-size="13" lengthAdjust="spacing" textLength="195.2095" x="188.7563" y="595.2935">t5848_clock_bitbang(T_ZERO)</text></g><path d="M101,633.3594 L101,658.3594 L252,658.3594 L252,643.3594 L242,633.3594 L101,633.3594" fill="#FAFAFA" style="stroke:#181818;stroke-width:0.5;"/><path d="M242,633.3594 L242,643.3594 L252,643.3594 L242,633.3594" fill="#FAFAFA" style="stroke:#181818;stroke-width:0.5;"/><text fill="#000000" font-family="sans-serif" font-size="13" lengthAdjust="spacing" textLength="130.2285" x="107" y="650.4263">Send SPACE symbol</text><g class="message" data-entity-1="part1" data-entity-2="part2" id="msg11"><polygon fill="#181818" points="399.8564,680.625,409.8564,684.625,399.8564,688.625,403.8564,684.625" style="stroke:#181818;stroke-width:1;"/><line style="stroke:#181818;stroke-width:1;" x1="181.7563" x2="405.8564" y1="684.625" y2="684.625"/><text fill="#000000" font-family="sans-serif" font-size="13" lengthAdjust="spacing" textLength="193.8574" x="188.7563" y="679.5591">gpio_pin_set_dt(thsel_gpio, 0)</text></g><g class="message" data-entity-1="part1" data-entity-2="part1" id="msg12"><line style="stroke:#181818;stroke-width:1;" x1="181.7563" x2="223.7563" y1="713.7578" y2="713.7578"/><line style="stroke:#181818;stroke-width:1;" x1="223.7563" x2="223.7563" y1="713.7578" y2="726.7578"/><line style="stroke:#181818;stroke-width:1;" x1="182.7563" x2="223.7563" y1="726.7578" y2="726.7578"/><polygon fill="#181818" points="192.7563,722.7578,182.7563,726.7578,192.7563,730.7578,188.7563,726.7578" style="stroke:#181818;stroke-width:1;"/><text fill="#000000" font-family="sans-serif" font-size="13" lengthAdjust="spacing" textLength="201.1001" x="188.7563" y="708.6919">t5848_clock_bitbang(T_SPACE)</text></g><path d="M105,746.7578 L105,771.7578 L248,771.7578 L248,756.7578 L238,746.7578 L105,746.7578" fill="#FAFAFA" style="stroke:#181818;stroke-width:0.5;"/><path d="M238,746.7578 L238,756.7578 L248,756.7578 L238,746.7578" fill="#FAFAFA" style="stroke:#181818;stroke-width:0.5;"/><text fill="#000000" font-family="sans-serif" font-size="13" lengthAdjust="spacing" textLength="122.2178" x="111" y="763.8247">Send STOP symbol</text><g class="message" data-entity-1="part1" data-entity-2="part2" id="msg13"><polygon fill="#181818" points="399.8564,794.0234,409.8564,798.0234,399.8564,802.0234,403.8564,798.0234" style="stroke:#181818;stroke-width:1;"/><line style="stroke:#181818;stroke-width:1;" x1="181.7563" x2="405.8564" y1="798.0234" y2="798.0234"/><text fill="#000000" font-family="sans-serif" font-size="13" lengthAdjust="spacing" textLength="193.8574" x="188.7563" y="792.9575">gpio_pin_set_dt(thsel_gpio, 1)</text></g><g class="message" data-entity-1="part1" data-entity-2="part1" id="msg14"><line style="stroke:#181818;stroke-width:1;" x1="181.7563" x2="223.7563" y1="827.1563" y2="827.1563"/><line style="stroke:#181818;stroke-width:1;" x1="223.7563" x2="223.7563" y1="827.1563" y2="840.1563"/><line style="stroke:#181818;stroke-width:1;" x1="182.7563" x2="223.7563" y1="840.1563" y2="840.1563"/><polygon fill="#181818" points="192.7563,836.1563,182.7563,840.1563,192.7563,844.1563,188.7563,840.1563" style="stroke:#181818;stroke-width:1;"/><text fill="#000000" font-family="sans-serif" font-size="13" lengthAdjust="spacing" textLength="193.0894" x="188.7563" y="822.0903">t5848_clock_bitbang(T_STOP)</text></g><path d="M101,853.1563 L101,878.1563 L252,878.1563 L252,863.1563 L242,853.1563 L101,853.1563" fill="#FAFAFA" style="stroke:#181818;stroke-width:0.5;"/><path d="M242,853.1563 L242,863.1563 L252,863.1563 L242,853.1563" fill="#FAFAFA" style="stroke:#181818;stroke-width:0.5;"/><text fill="#000000" font-family="sans-serif" font-size="13" lengthAdjust="spacing" textLength="130.2285" x="107" y="870.2231">Send SPACE symbol</text><g class="message" data-entity-1="part1" data-entity-2="part2" id="msg15"><polygon fill="#181818" points="399.8564,900.4219,409.8564,904.4219,399.8564,908.4219,403.8564,904.4219" style="stroke:#181818;stroke-width:1;"/><line style="stroke:#181818;stroke-width:1;" x1="181.7563" x2="405.8564" y1="904.4219" y2="904.4219"/><text fill="#000000" font-family="sans-serif" font-size="13" lengthAdjust="spacing" textLength="193.8574" x="188.7563" y="899.356">gpio_pin_set_dt(thsel_gpio, 0)</text></g><g class="message" data-entity-1="part1" data-entity-2="part1" id="msg16"><line style="stroke:#181818;stroke-width:1;" x1="181.7563" x2="223.7563" y1="933.5547" y2="933.5547"/><line style="stroke:#181818;stroke-width:1;" x1="223.7563" x2="223.7563" y1="933.5547" y2="946.5547"/><line style="stroke:#181818;stroke-width:1;" x1="182.7563" x2="223.7563" y1="946.5547" y2="946.5547"/><polygon fill="#181818" points="192.7563,942.5547,182.7563,946.5547,192.7563,950.5547,188.7563,946.5547" style="stroke:#181818;stroke-width:1;"/><text fill="#000000" font-family="sans-serif" font-size="13" lengthAdjust="spacing" textLength="193.0894" x="188.7563" y="928.4888">t5848_clock_bitbang(T_POST)</text></g><g class="message" data-entity-1="part1" data-entity-2="part1" id="msg17"><polygon fill="#181818" points="11,971.6875,1,975.6875,11,979.6875,7,975.6875" style="stroke:#181818;stroke-width:1;"/><line style="stroke:#181818;stroke-width:1;" x1="5" x2="175.7563" y1="975.6875" y2="975.6875"/><text fill="#000000" font-family="sans-serif" font-size="13" lengthAdjust="spacing" textLength="52.6665" x="17" y="970.6216">return 0</text></g><?plantuml-src nLHTQy8m57tFhxZu81Rgg6C3aJbmGpR1hKM5mHYKc6Or69EIHDd-_PBusOVAEf0LIhdtddlEIMvIlMIYm0glu4KAIHPAhYWOjQP87oe9LeOHLc1X4fnbJEHm7PtK7-JNFj-942gES6YOs-vDzueq06juKypGSlaf6SNmF1ZxkWiGQjzlWT03tvmgchVi6qA63Gu_H9FmPPeNJ8RGD0jDkGy2X8bX6smRjpe82Ma3kQ7gG3Yb8eDaCWJzlPfBZhPvg-XzzC0HfGKJgQOcpKphI1z251pXPOE4Ix9CvypCiSXRizGA1DNget4y-uj-v_VwJgBQmJGPF5vu1xn4WBYK1NnA1HIJ1TWPCcsi6uj3O9yAV_jopStnFPWRrm_zFdHyeaHqtdJyQYqxFEMQxbcYkYplmqcyen6P_vvRQsaMTHST1QY6iTrCdAlAap6BayiUJQVmhoSpYQVkQjor3pX5pLe9E-YCblyWFm00?></g></svg>