<svg xmlns="http://www.w3.org/2000/svg" xmlns:xlink="http://www.w3.org/1999/xlink" contentStyleType="text/css" data-diagram-type="SEQUENCE" height="797px" preserveAspectRatio="none" style="width:1006px;height:797px;background:#FFFFFF;" version="1.1" viewBox="0 0 1006 797" width="1006px" zoomAndPan="magnify"><defs/><g><rect fill="none" height="261.5391" style="stroke:#000000;stroke-width:1.5;" width="653.4619" x="336.3506" y="186.125"/><rect fill="none" height="131.3359" style="stroke:#000000;stroke-width:1.5;" width="633.4619" x="346.3506" y="309.3281"/><g class="participant-lifeline" data-entity-uid="part1" data-qualified-name="Peer" id="part1-lifeline"><g><title>Peer Device</title><rect fill="#000000" fill-opacity="0.00000" height="693.3984" width="8" x="49.877" y="52.5938"/><line style="stroke:#181818;stroke-width:0.5;stroke-dasharray:5,5;" x1="53" x2="53" y1="52.5938" y2="745.9922"/></g></g><g class="participant-lifeline" data-entity-uid="part2" data-qualified-name="BLE" id="part2-lifeline"><g><title>BLE Scan Module</title><rect fill="#000000" fill-opacity="0.00000" height="693.3984" width="8" x="264.751" y="52.5938"/><line style="stroke:#181818;stroke-width:0.5;stroke-dasharray:5,5;" x1="268.7041" x2="268.7041" y1="52.5938" y2="745.9922"/></g></g><g class="participant-lifeline" data-entity-uid="part3" data-qualified-name="Logic" id="part3-lifeline"><g><title>ble_proximity.c</title><rect fill="#000000" fill-opacity="0.00000" height="693.3984" width="8" x="441.7168" y="52.5938"/><line style="stroke:#181818;stroke-width:0.5;stroke-dasharray:5,5;" x1="445.3506" x2="445.3506" y1="52.5938" y2="745.9922"/></g></g><g class="participant-lifeline" data-entity-uid="part4" data-qualified-name="Timer" id="part4-lifeline"><g><title>Flush Timer</title><rect fill="#000000" fill-opacity="0.00000" height="693.3984" width="8" x="638.3262" y="52.5938"/><line style="stroke:#181818;stroke-width:0.5;stroke-dasharray:5,5;" x1="641.3857" x2="641.3857" y1="52.5938" y2="745.9922"/></g></g><g class="participant-lifeline" data-entity-uid="part5" data-qualified-name="Store" id="part5-lifeline"><g><title>Proximity Store</title><rect fill="#000000" fill-opacity="0.00000" height="693.3984" width="8" x="757.2671" y="52.5938"/><line style="stroke:#181818;stroke-width:0.5;stroke-dasharray:5,5;" x1="761.2666" x2="761.2666" y1="52.5938" y2="745.9922"/></g></g><g class="participant-lifeline" data-entity-uid="part6" data-qualified-name="SD" id="part6-lifeline"><g><title>SD Card</title><rect fill="#000000" fill-opacity="0.00000" height="693.3984" width="8" x="863.8247" y="52.5938"/><line style="stroke:#181818;stroke-width:0.5;stroke-dasharray:5,5;" x1="867.2676" x2="867.2676" y1="52.5938" y2="745.9922"/></g></g><g class="participant participant-head" data-entity-uid="part1" data-qualified-name="Peer" id="part1-head"><rect fill="#E3E3E3" height="30.2969" rx="2.5" ry="2.5" style="stroke:#181818;stroke-width:0.5;" width="97.7539" x="5" y="21.2969"/><text fill="#000000" font-family="sans-serif" font-size="14" lengthAdjust="spacing" textLength="83.7539" x="12" y="41.292">Peer Device</text></g><g class="participant participant-tail" data-entity-uid="part1" data-qualified-name="Peer" id="part1-tail"><rect fill="#E3E3E3" height="30.2969" rx="2.5" ry="2.5" style="stroke:#181818;stroke-width:0.5;" width="97.7539" x="5" y="744.9922"/><text fill="#000000" font-family="sans-serif" font-size="14" lengthAdjust="spacing" textLength="83.7539" x="12" y="764.9873">Peer Device</text></g><g class="participant participant-head" data-entity-uid="part2" data-qualified-name="BLE" id="part2-head"><rect fill="#E3E3E3" height="46.5938" rx="2.5" ry="2.5" style="stroke:#181818;stroke-width:0.5;" width="134.0938" x="201.7041" y="5"/><text fill="#000000" font-family="sans-serif" font-size="14" lengthAdjust="spacing" textLength="120.0938" x="208.7041" y="24.9951">BLE Scan Module</text><text fill="#000000" font-family="sans-serif" font-size="14" lengthAdjust="spacing" textLength="60.9287" x="238.2866" y="41.292">(Zephyr)</text></g><g class="participant participant-tail" data-entity-uid="part2" data-qualified-name="BLE" id="part2-tail"><rect fill="#E3E3E3" height="46.5938" rx="2.5" ry="2.5" style="stroke:#181818;stroke-width:0.5;" width="134.0938" x="201.7041" y="744.9922"/><text fill="#000000" font-family="sans-serif" font-size="14" lengthAdjust="spacing" textLength="120.0938" x="208.7041" y="764.9873">BLE Scan Module</text><text fill="#000000" font-family="sans-serif" font-size="14" lengthAdjust="spacing" textLength="60.9287" x="238.2866" y="781.2842">(Zephyr)</text></g><g class="participant participant-head" data-entity-uid="part3" data-qualified-name="Logic" id="part3-head"><rect fill="#E3E3E3" height="46.5938" rx="2.5" ry="2.5" style="stroke:#181818;stroke-width:0.5;" width="178.7324" x="356.3506" y="5"/><text fill="#000000" font-family="sans-serif" font-size="14" lengthAdjust="spacing" textLength="107.2217" x="392.106" y="24.9951">ble_proximity.c</text><text fill="#000000" font-family="sans-serif" font-size="14" lengthAdjust="spacing" textLength="164.7324" x="363.3506" y="41.292">(scanning_filter_match)</text></g><g class="participant participant-tail" data-entity-uid="part3" data-qualified-name="Logic" id="part3-tail"><rect fill="#E3E3E3" height="46.5938" rx="2.5" ry="2.5" style="stroke:#181818;stroke-width:0.5;" width="178.7324" x="356.3506" y="744.9922"/><text fill="#000000" font-family="sans-serif" font-size="14" lengthAdjust="spacing" textLength="107.2217" x="392.106" y="764.9873">ble_proximity.c</text><text fill="#000000" font-family="sans-serif" font-size="14" lengthAdjust="spacing" textLength="164.7324" x="363.3506" y="781.2842">(scanning_filter_match)</text></g><g class="participant participant-head" data-entity-uid="part4" data-qualified-name="Timer" id="part4-head"><rect fill="#E3E3E3" height="30.2969" rx="2.5" ry="2.5" style="stroke:#181818;stroke-width:0.5;" width="95.8809" x="594.3857" y="21.2969"/><text fill="#000000" font-family="sans-serif" font-size="14" lengthAdjust="spacing" textLength="81.8809" x="601.3857" y="41.292">Flush Timer</text></g><g class="participant participant-tail" data-entity-uid="part4" data-qualified-name="Timer" id="part4-tail"><rect fill="#E3E3E3" height="30.2969" rx="2.5" ry="2.5" style="stroke:#181818;stroke-width:0.5;" width="95.8809" x="594.3857" y="744.9922"/><text fill="#000000" font-family="sans-serif" font-size="14" lengthAdjust="spacing" textLength="81.8809" x="601.3857" y="764.9873">Flush Timer</text></g><g class="participant participant-head" data-entity-uid="part5" data-qualified-name="Store" id="part5-head"><rect fill="#E3E3E3" height="46.5938" rx="2.5" ry="2.5" style="stroke:#181818;stroke-width:0.5;" width="122.001" x="700.2666" y="5"/><text fill="#000000" font-family="sans-serif" font-size="14" lengthAdjust="spacing" textLength="108.001" x="707.2666" y="24.9951">Proximity Store</text><text fill="#000000" font-family="sans-serif" font-size="14" lengthAdjust="spacing" textLength="49.2598" x="736.6372" y="41.292">Thread</text></g><g class="participant participant-tail" data-entity-uid="part5" data-qualified-name="Store" id="part5-tail"><rect fill="#E3E3E3" height="46.5938" rx="2.5" ry="2.5" style="stroke:#181818;stroke-width:0.5;" width="122.001" x="700.2666" y="744.9922"/><text fill="#000000" font-family="sans-serif" font-size="14" lengthAdjust="spacing" textLength="108.001" x="707.2666" y="764.9873">Proximity Store</text><text fill="#000000" font-family="sans-serif" font-size="14" lengthAdjust="spacing" textLength="49.2598" x="736.6372" y="781.2842">Thread</text></g><g class="participant participant-head" data-entity-uid="part6" data-qualified-name="SD" id="part6-head"><rect fill="#E3E3E3" height="30.2969" rx="2.5" ry="2.5" style="stroke:#181818;stroke-width:0.5;" width="71.1143" x="832.2676" y="21.2969"/><text fill="#000000" font-family="sans-serif" font-size="14" lengthAdjust="spacing" textLength="57.1143" x="839.2676" y="41.292">SD Card</text></g><g class="participant participant-tail" data-entity-uid="part6" data-qualified-name="SD" id="part6-tail"><rect fill="#E3E3E3" height="30.2969" rx="2.5" ry="2.5" style="stroke:#181818;stroke-width:0.5;" width="71.1143" x="832.2676" y="744.9922"/><text fill="#000000" font-family="sans-serif" font-size="14" lengthAdjust="spacing" textLength="57.1143" x="839.2676" y="764.9873">SD Card</text></g><rect fill="#EEEEEE" height="3" style="stroke:#EEEEEE;stroke-width:1;" width="999.8125" x="0" y="83.1602"/><line style="stroke:#000000;stroke-width:1;" x1="0" x2="999.8125" y1="83.1602" y2="83.1602"/><line style="stroke:#000000;stroke-width:1;" x1="0" x2="999.8125" y1="86.1602" y2="86.1602"/><rect fill="#EEEEEE" height="23.1328" style="stroke:#000000;stroke-width:2;" width="138.3633" x="430.7246" y="72.5938"/><text fill="#000000" font-family="sans-serif" font-size="13" font-weight="bold" lengthAdjust="spacing" textLength="119.8374" x="436.7246" y="88.6606">Detection Phase</text><g class="message" data-entity-1="part1" data-entity-2="part2" id="msg1"><polygon fill="#181818" points="256.751,137.9922,266.751,141.9922,256.751,145.9922,260.751,141.9922" style="stroke:#181818;stroke-width:1;"/><line style="stroke:#181818;stroke-width:1;" x1="53.877" x2="262.751" y1="141.9922" y2="141.9922"/><text fill="#000000" font-family="sans-serif" font-size="13" lengthAdjust="spacing" textLength="124.1665" x="60.877" y="121.7935">BLE Advertisement</text><text fill="#000000" font-family="sans-serif" font-size="13" lengthAdjust="spacing" textLength="190.874" x="60.877" y="136.9263">(Manufacturer Data: 0x5A02)</text></g><g class="message" data-entity-1="part2" data-entity-2="part3" id="msg2"><polygon fill="#181818" points="433.7168,167.125,443.7168,171.125,433.7168,175.125,437.7168,171.125" style="stroke:#181818;stroke-width:1;"/><line style="stroke:#181818;stroke-width:1;" x1="268.751" x2="439.7168" y1="171.125" y2="171.125"/><text fill="#000000" font-family="sans-serif" font-size="13" lengthAdjust="spacing" textLength="152.9658" x="275.751" y="166.0591">scanning_filter_match()</text></g><path d="M336.3506,186.125 L400.7935,186.125 L400.7935,193.2578 L390.7935,203.2578 L336.3506,203.2578 L336.3506,186.125" fill="#EEEEEE" style="stroke:#000000;stroke-width:1.5;"/><rect fill="none" height="261.5391" style="stroke:#000000;stroke-width:1.5;" width="653.4619" x="336.3506" y="186.125"/><text fill="#000000" font-family="sans-serif" font-size="13" font-weight="bold" lengthAdjust="spacing" textLength="19.4429" x="351.3506" y="199.1919">alt</text><text fill="#000000" font-family="sans-serif" font-size="11" font-weight="bold" lengthAdjust="spacing" textLength="239.5938" x="415.7935" y="198.3354">[Device already seen (De-duplication)]</text><g class="message" data-entity-1="part3" data-entity-2="part3" id="msg3"><line style="stroke:#181818;stroke-width:1;" x1="445.7168" x2="487.7168" y1="224.3906" y2="224.3906"/><line style="stroke:#181818;stroke-width:1;" x1="487.7168" x2="487.7168" y1="224.3906" y2="237.3906"/><line style="stroke:#181818;stroke-width:1;" x1="446.7168" x2="487.7168" y1="237.3906" y2="237.3906"/><polygon fill="#181818" points="456.7168,233.3906,446.7168,237.3906,456.7168,241.3906,452.7168,237.3906" style="stroke:#181818;stroke-width:1;"/><text fill="#000000" font-family="sans-serif" font-size="13" lengthAdjust="spacing" textLength="182.6094" x="452.7168" y="219.3247">Address in seen_devices list</text></g><path d="M646.6094,211.7578 L646.6094,236.7578 L760.6094,236.7578 L760.6094,221.7578 L750.6094,211.7578 L646.6094,211.7578" fill="#FAFAFA" style="stroke:#181818;stroke-width:0.5;"/><path d="M750.6094,211.7578 L750.6094,221.7578 L760.6094,221.7578 L750.6094,211.7578" fill="#FAFAFA" style="stroke:#181818;stroke-width:0.5;"/><text fill="#000000" font-family="sans-serif" font-size="13" font-weight="bold" lengthAdjust="spacing" textLength="47.5566" x="652.6094" y="228.8247">Ignore</text><text fill="#000000" font-family="sans-serif" font-size="13" lengthAdjust="spacing" textLength="42.0405" x="704.2983" y="228.8247">record</text><line style="stroke:#000000;stroke-width:1;stroke-dasharray:2,2;" x1="336.3506" x2="989.8125" y1="246.3906" y2="246.3906"/><text fill="#000000" font-family="sans-serif" font-size="11" font-weight="bold" lengthAdjust="spacing" textLength="141.2222" x="341.3506" y="256.6011">[New Device detected]</text><g class="message" data-entity-1="part3" data-entity-2="part3" id="msg5"><line style="stroke:#181818;stroke-width:1;" x1="445.7168" x2="487.7168" y1="281.3281" y2="281.3281"/><line style="stroke:#181818;stroke-width:1;" x1="487.7168" x2="487.7168" y1="281.3281" y2="294.3281"/><line style="stroke:#181818;stroke-width:1;" x1="446.7168" x2="487.7168" y1="294.3281" y2="294.3281"/><polygon fill="#181818" points="456.7168,290.3281,446.7168,294.3281,456.7168,298.3281,452.7168,294.3281" style="stroke:#181818;stroke-width:1;"/><text fill="#000000" font-family="sans-serif" font-size="13" lengthAdjust="spacing" textLength="176.4331" x="452.7168" y="276.2622">Add 13-byte record to RAM</text></g><path d="M346.3506,309.3281 L410.7935,309.3281 L410.7935,316.4609 L400.7935,326.4609 L346.3506,326.4609 L346.3506,309.3281" fill="#EEEEEE" style="stroke:#000000;stroke-width:1.5;"/><rect fill="none" height="131.3359" style="stroke:#000000;stroke-width:1.5;" width="633.4619" x="346.3506" y="309.3281"/><text fill="#000000" font-family="sans-serif" font-size="13" font-weight="bold" lengthAdjust="spacing" textLength="19.4429" x="361.3506" y="322.395">alt</text><text fill="#000000" font-family="sans-serif" font-size="11" font-weight="bold" lengthAdjust="spacing" textLength="75.4424" x="425.7935" y="321.5386">[Buffer Full]</text><g class="message" data-entity-1="part3" data-entity-2="part4" id="msg6"><polygon fill="#181818" points="630.3262,343.5938,640.3262,347.5938,630.3262,351.5938,634.3262,347.5938" style="stroke:#181818;stroke-width:1;"/><line style="stroke:#181818;stroke-width:1;" x1="445.7168" x2="636.3262" y1="347.5938" y2="347.5938"/><text fill="#000000" font-family="sans-serif" font-size="13" lengthAdjust="spacing" textLength="104.2412" x="452.7168" y="342.5278">k_work_cancel()</text></g><g class="message" data-entity-1="part3" data-entity-2="part5" id="msg7"><polygon fill="#181818" points="749.2671,375.7266,759.2671,379.7266,749.2671,383.7266,753.2671,379.7266" style="stroke:#181818;stroke-width:1;"/><line style="stroke:#181818;stroke-width:1;" x1="445.7168" x2="755.2671" y1="379.7266" y2="379.7266"/><text fill="#000000" font-family="sans-serif" font-size="13" lengthAdjust="spacing" textLength="163.9092" x="452.7168" y="374.6606">Give ble_file_access_sem</text></g><path d="M766,360.5938 L766,385.5938 L912,385.5938 L912,370.5938 L902,360.5938 L766,360.5938" fill="#FAFAFA" style="stroke:#181818;stroke-width:0.5;"/><path d="M902,360.5938 L902,370.5938 L912,370.5938 L902,360.5938" fill="#FAFAFA" style="stroke:#181818;stroke-width:0.5;"/><text fill="#000000" font-family="sans-serif" font-size="13" lengthAdjust="spacing" textLength="125.4805" x="772" y="377.6606">Immediate rotation</text><line style="stroke:#000000;stroke-width:1;stroke-dasharray:2,2;" x1="346.3506" x2="979.8125" y1="391.7266" y2="391.7266"/><text fill="#000000" font-family="sans-serif" font-size="11" font-weight="bold" lengthAdjust="spacing" textLength="99.9185" x="351.3506" y="401.937">[Buffer not Full]</text><g class="message" data-entity-1="part3" data-entity-2="part4" id="msg9"><polygon fill="#181818" points="630.3262,425.6641,640.3262,429.6641,630.3262,433.6641,634.3262,429.6641" style="stroke:#181818;stroke-width:1;"/><line style="stroke:#181818;stroke-width:1;" x1="445.7168" x2="636.3262" y1="429.6641" y2="429.6641"/><text fill="#000000" font-family="sans-serif" font-size="13" lengthAdjust="spacing" textLength="133.7324" x="452.7168" y="424.5981">k_work_reschedule()</text></g><path d="M647,410.5313 L647,435.5313 L964,435.5313 L964,420.5313 L954,410.5313 L647,410.5313" fill="#FAFAFA" style="stroke:#181818;stroke-width:0.5;"/><path d="M954,410.5313 L954,420.5313 L964,420.5313 L954,410.5313" fill="#FAFAFA" style="stroke:#181818;stroke-width:0.5;"/><text fill="#000000" font-family="sans-serif" font-size="13" lengthAdjust="spacing" textLength="296.4863" x="653" y="427.5981">CONFIG_BT_PROXIMITY_FLUSH_TIMEOUT_MIN</text><rect fill="#EEEEEE" height="3" style="stroke:#EEEEEE;stroke-width:1;" width="999.8125" x="0" y="475.2305"/><line style="stroke:#000000;stroke-width:1;" x1="0" x2="999.8125" y1="475.2305" y2="475.2305"/><line style="stroke:#000000;stroke-width:1;" x1="0" x2="999.8125" y1="478.2305" y2="478.2305"/><rect fill="#EEEEEE" height="23.1328" style="stroke:#000000;stroke-width:2;" width="121.8213" x="438.9956" y="464.6641"/><text fill="#000000" font-family="sans-serif" font-size="13" font-weight="bold" lengthAdjust="spacing" textLength="103.2954" x="444.9956" y="480.731">Timeout Logic</text><path d="M379,502.7969 L379,557.7969 L707,557.7969 L707,512.7969 L697,502.7969 L379,502.7969" fill="#D3D3D3" style="stroke:#181818;stroke-width:0.5;"/><path d="M697,502.7969 L697,512.7969 L707,512.7969 L697,502.7969" fill="#D3D3D3" style="stroke:#181818;stroke-width:0.5;"/><text fill="#000000" font-family="sans-serif" font-size="13" font-weight="bold" lengthAdjust="spacing" textLength="191.604" x="443.156" y="519.8638">No more devices detected</text><text fill="#000000" font-family="sans-serif" font-size="13" lengthAdjust="spacing" textLength="4.1323" x="443.156" y="534.9966">&#160;</text><text fill="#000000" font-family="sans-serif" font-size="13" lengthAdjust="spacing" textLength="190.6201" x="443.156" y="550.1294">RAM buffer holds partial data</text><g class="message" data-entity-1="part4" data-entity-2="part3" id="msg11"><polygon fill="#181818" points="456.7168,580.3281,446.7168,584.3281,456.7168,588.3281,452.7168,584.3281" style="stroke:#181818;stroke-width:1;"/><line style="stroke:#181818;stroke-width:1;" x1="450.7168" x2="641.3262" y1="584.3281" y2="584.3281"/><text fill="#000000" font-family="sans-serif" font-size="13" lengthAdjust="spacing" textLength="166.1563" x="462.7168" y="579.2622">proximity_flush_handler()</text></g><g class="message" data-entity-1="part3" data-entity-2="part5" id="msg12"><polygon fill="#181818" points="749.2671,612.4609,759.2671,616.4609,749.2671,620.4609,753.2671,616.4609" style="stroke:#181818;stroke-width:1;"/><line style="stroke:#181818;stroke-width:1;" x1="445.7168" x2="755.2671" y1="616.4609" y2="616.4609"/><text fill="#000000" font-family="sans-serif" font-size="13" lengthAdjust="spacing" textLength="163.9092" x="452.7168" y="611.395">Give ble_file_access_sem</text></g><path d="M766,597.3281 L766,622.3281 L965,622.3281 L965,607.3281 L955,597.3281 L766,597.3281" fill="#FAFAFA" style="stroke:#181818;stroke-width:0.5;"/><path d="M955,597.3281 L955,607.3281 L965,607.3281 L955,597.3281" fill="#FAFAFA" style="stroke:#181818;stroke-width:0.5;"/><text fill="#000000" font-family="sans-serif" font-size="13" lengthAdjust="spacing" textLength="178.5024" x="772" y="614.395">Force write of partial buffer</text><rect fill="#EEEEEE" height="3" style="stroke:#EEEEEE;stroke-width:1;" width="999.8125" x="0" y="648.0273"/><line style="stroke:#000000;stroke-width:1;" x1="0" x2="999.8125" y1="648.0273" y2="648.0273"/><line style="stroke:#000000;stroke-width:1;" x1="0" x2="999.8125" y1="651.0273" y2="651.0273"/><rect fill="#EEEEEE" height="23.1328" style="stroke:#000000;stroke-width:2;" width="76.3403" x="461.7361" y="637.4609"/><text fill="#000000" font-family="sans-serif" font-size="13" font-weight="bold" lengthAdjust="spacing" textLength="57.8145" x="467.7361" y="653.5278">Storage</text><path d="M379,675.5938 L379,730.5938 L707,730.5938 L707,685.5938 L697,675.5938 L379,675.5938" fill="#D3D3D3" style="stroke:#181818;stroke-width:0.5;"/><path d="M697,675.5938 L697,685.5938 L707,685.5938 L697,675.5938" fill="#D3D3D3" style="stroke:#181818;stroke-width:0.5;"/><text fill="#000000" font-family="sans-serif" font-size="13" font-weight="bold" lengthAdjust="spacing" textLength="243.5977" x="417.1592" y="692.6606">See main ble proximity sequence</text><text fill="#000000" font-family="sans-serif" font-size="13" lengthAdjust="spacing" textLength="4.1323" x="417.1592" y="707.7935">&#160;</text><text fill="#000000" font-family="sans-serif" font-size="13" lengthAdjust="spacing" textLength="190.6201" x="417.1592" y="722.9263">RAM buffer holds partial data</text><!--SRC=[bLDTRnen47o_Nx5ANm0rLTggBr69126a9_4H1IArLINBs0jduREfpvU4Vz_r7g6vVaW94YVmpSxEpAwhhN4x6MG9fNTU5S6N237KcD5fDChif8jmSeCOO8JtHk49o0hI_pPYEBc2XP8EfbxN5d-updVS5VlGPJozRSDN5iKk-4TJchX_fmXUKR4pRYFMnaOCefHH5Ktrn6-CQjUFRLqLi3Gb1eRmhpyqFz738lf0YfP5GAaPpYTj-684bp8SNe-ohDydmn5LDDx1JI4hX7u_uo1EBv8XEEVdGDyZqLHOeelaOofTlPOgrY559gCyXxF7JuEp3zqimQcMxL3rFnrtkbacRJo43T8cpNke41rqHdYgwvqrIYPLtGpeqx0zenre7R2gm3Yk4fgPAh2cYbpXV4G8PbD4GlTw-SPH6BqU15G-w0mjMPtXmvC4pIcW_cytUF_nTBLFd4m0qSFjOCfmVYGxmtgzfZp6jRLyrkBYuH7NLZpui1KKYqBRwVuDvB4HyDhS8wGLekHGI4NsAa4JE5QqBEPbYTh8TE8Z9ySuzddGHVYNQQDaLO5fmv_fQtMxdC_6-RKOBiNDxVnhFisNtyHuShVu8fRvz6f-jnJJVDO8S1GsVTEgfJQ-ZeU-j6ZCwMcrcgEt1o5l9gdDTP1xflYykfXvkheXZQaPyt5S3A11mAhnM7YhA-2TbnOqRMRgpkApB6ledmtsU3l5EjqrKKYdBGQo_V9nj88P-q3Rz11CChO-2cdKPPn28fGRV9N_1IAKafQT1FmMJQl_iqRQezV4y0i0]--></g></svg>