<svg xmlns="http://www.w3.org/2000/svg" xmlns:xlink="http://www.w3.org/1999/xlink" contentStyleType="text/css" data-diagram-type="STATE" height="297px" preserveAspectRatio="none" style="width:537px;height:297px;background:#FFFFFF;" version="1.1" viewBox="0 0 537 297" width="537px" zoomAndPan="magnify"><defs/><g><path d="M258.51,7 L370.4167,7 A12.5,12.5 0 0 1 382.9167,19.5 L382.9167,33.2969 L246.01,33.2969 L246.01,19.5 A12.5,12.5 0 0 1 258.51,7" fill="#F1F1F1"/><rect fill="none" height="103.6953" rx="12.5" ry="12.5" style="stroke:#181818;stroke-width:0.5;" width="136.9067" x="246.01" y="7"/><line style="stroke:#181818;stroke-width:0.5;" x1="246.01" x2="382.9167" y1="33.2969" y2="33.2969"/><text fill="#000000" font-family="sans-serif" font-size="14" lengthAdjust="spacing" textLength="92.5449" x="268.1909" y="24.9951">SLEEP_MODE</text><g class="entity" data-qualified-name="SLEEP_MODE.N1" data-source-line="7" id="ent0003"><path d="M257.01,44.2969 L257.01,99.6953 L373.9167,99.6953 L373.9167,54.2969 L363.9167,44.2969 L257.01,44.2969" fill="#FAFAFA" style="stroke:#181818;stroke-width:0.5;"/><path d="M363.9167,44.2969 L363.9167,54.2969 L373.9167,54.2969 L363.9167,44.2969" fill="#FAFAFA" style="stroke:#181818;stroke-width:1;"/><text fill="#000000" font-family="sans-serif" font-size="13" lengthAdjust="spacing" textLength="86.8042" x="263.01" y="61.3638">I2S clk = 0Hz</text><text fill="#000000" font-family="sans-serif" font-size="13" lengthAdjust="spacing" textLength="40.8218" x="263.01" y="76.4966">AAD A</text><text fill="#000000" font-family="sans-serif" font-size="13" lengthAdjust="spacing" textLength="95.9067" x="263.01" y="91.6294">No data on I2S</text></g><path d="M246.33,187.69 L382.5946,187.69 A12.5,12.5 0 0 1 395.0946,200.19 L395.0946,213.9869 L233.83,213.9869 L233.83,200.19 A12.5,12.5 0 0 1 246.33,187.69" fill="#F1F1F1"/><rect fill="none" height="103.6953" rx="12.5" ry="12.5" style="stroke:#181818;stroke-width:0.5;" width="161.2646" x="233.83" y="187.69"/><line style="stroke:#181818;stroke-width:0.5;" x1="233.83" x2="395.0946" y1="213.9869" y2="213.9869"/><text fill="#000000" font-family="sans-serif" font-size="14" lengthAdjust="spacing" textLength="141.2646" x="243.83" y="205.6851">LOW_POWER_MODE</text><g class="entity" data-qualified-name="LOW_POWER_MODE.N2" data-source-line="13" id="ent0005"><path d="M244.83,224.9869 L244.83,280.3853 L376.7045,280.3853 L376.7045,234.9869 L366.7045,224.9869 L244.83,224.9869" fill="#FAFAFA" style="stroke:#181818;stroke-width:0.5;"/><path d="M366.7045,224.9869 L366.7045,234.9869 L376.7045,234.9869 L366.7045,224.9869" fill="#FAFAFA" style="stroke:#181818;stroke-width:1;"/><text fill="#000000" font-family="sans-serif" font-size="13" lengthAdjust="spacing" textLength="110.8745" x="250.83" y="242.0538">I2S clk = 768kHz</text><text fill="#000000" font-family="sans-serif" font-size="13" lengthAdjust="spacing" textLength="50.21" x="250.83" y="257.1866">AAD D1</text><text fill="#000000" font-family="sans-serif" font-size="13" lengthAdjust="spacing" textLength="75.8545" x="250.83" y="272.3194">Data on I2S</text></g><g class="entity" data-qualified-name="GMN2" data-source-line="10" id="ent0003"><path d="M18,31.15 L18,86.5484 A0,0 0 0 0 18,86.5484 L210.9326,86.5484 A0,0 0 0 0 210.9326,86.5484 L210.9326,62.85 L245.58,58.85 L210.9326,54.85 L210.9326,41.15 L200.9326,31.15 L18,31.15 A0,0 0 0 0 18,31.15" fill="#FAFAFA" style="stroke:#181818;stroke-width:0.5;"/><path d="M200.9326,31.15 L200.9326,41.15 L210.9326,41.15 L200.9326,31.15" fill="#FAFAFA" style="stroke:#181818;stroke-width:0.5;"/><text fill="#000000" font-family="sans-serif" font-size="13" lengthAdjust="spacing" textLength="171.9326" x="24" y="48.2169">System in recording state.</text><text fill="#000000" font-family="sans-serif" font-size="13" lengthAdjust="spacing" textLength="144.479" x="24" y="63.3497">Wait for a wake signal</text><text fill="#000000" font-family="sans-serif" font-size="13" lengthAdjust="spacing" textLength="150.5156" x="24" y="78.4825">to start saving session.</text></g><g class="entity" data-qualified-name="GMN5" data-source-line="15" id="ent0006"><path d="M6,204.28 L6,274.8113 A0,0 0 0 0 6,274.8113 L198.9326,274.8113 A0,0 0 0 0 198.9326,274.8113 L198.9326,243.54 L233.53,239.54 L198.9326,235.54 L198.9326,214.28 L188.9326,204.28 L6,204.28 A0,0 0 0 0 6,204.28" fill="#FAFAFA" style="stroke:#181818;stroke-width:0.5;"/><path d="M188.9326,204.28 L188.9326,214.28 L198.9326,214.28 L188.9326,204.28" fill="#FAFAFA" style="stroke:#181818;stroke-width:0.5;"/><text fill="#000000" font-family="sans-serif" font-size="13" lengthAdjust="spacing" textLength="171.9326" x="12" y="221.3469">System in recording state.</text><text fill="#000000" font-family="sans-serif" font-size="13" lengthAdjust="spacing" textLength="109.0337" x="12" y="236.4797">Save data to SD.</text><text fill="#000000" font-family="sans-serif" font-size="13" lengthAdjust="spacing" textLength="117.6094" x="12" y="251.6125">Keep in this mode</text><text fill="#000000" font-family="sans-serif" font-size="13" lengthAdjust="spacing" textLength="112.6772" x="12" y="266.7453">by AAD D1 wake.</text></g><!--link SLEEP_MODE to LOW_POWER_MODE--><g class="link" data-entity-1="ent0002" data-entity-2="ent0004" data-link-type="dependency" data-source-line="17" id="lnk2"><path d="M259.19,110.94 C249.89,125.33 244.83,141.49 250.47,157.69 C254.05,168.01 256.1838,173.0468 262.4938,182.2768" fill="none" id="SLEEP_MODE-to-LOW_POWER_MODE" style="stroke:#181818;stroke-width:1;"/><polygon fill="#181818" points="265.88,187.23,264.1028,177.5428,263.0582,183.1024,257.4986,182.0577,265.88,187.23" style="stroke:#181818;stroke-width:1;"/><text fill="#000000" font-family="sans-serif" font-size="13" lengthAdjust="spacing" textLength="79.0791" x="251.47" y="153.7569">AAD A wake</text></g><!--link LOW_POWER_MODE to SLEEP_MODE--><g class="link" data-entity-1="ent0004" data-entity-2="ent0002" data-link-type="dependency" data-source-line="19" id="lnk4"><path d="M332.17,187.28 C335.51,172.35 337.41,155.95 335.47,140.69 C334.22,130.91 333.5507,126.4542 331.1907,116.6242" fill="none" id="LOW_POWER_MODE-to-SLEEP_MODE" style="stroke:#181818;stroke-width:1;"/><polygon fill="#181818" points="329.79,110.79,328.0016,120.4751,330.9572,115.6518,335.7805,118.6075,329.79,110.79" style="stroke:#181818;stroke-width:1;"/><text fill="#000000" font-family="sans-serif" font-size="13" lengthAdjust="spacing" textLength="61.9785" x="336.47" y="153.7569">Tail timer</text></g><!--link LOW_POWER_MODE to LOW_POWER_MODE--><g class="link" data-entity-1="ent0004" data-entity-2="ent0004" data-link-type="dependency" data-source-line="18" id="lnk3"><path d="M395.52,222.87 C415.34,224.1 430.1,229.66 430.1,239.54 C430.1,249.42 421.3283,254.6054 401.5083,255.8454" fill="none" id="LOW_POWER_MODE-to-LOW_POWER_MODE" style="stroke:#181818;stroke-width:1;"/><polygon fill="#181818" points="395.52,256.22,404.7522,259.6502,400.5102,255.9078,404.2527,251.6658,395.52,256.22" style="stroke:#181818;stroke-width:1;"/><text fill="#000000" font-family="sans-serif" font-size="13" lengthAdjust="spacing" textLength="88.4673" x="436.1" y="244.1069">AAD D1 wake</text></g><!--SRC=[VP71Ji9048RlVOe9TuXmK6EG16sZnWh4cd1fGiPsQ3TjPyZkWa7ZkxkqOg2Arvbl_lrsnXIALwYnWafOabnBHM3rcZppqp4MBS67TuD9aMbPStehfUZXC9HC9QCHX2hBxPt6hVVfUGqTXK4mMpnD_S0DihXAvs4GGL8MS0rdz-ynZyS-Z6EU2AHe4OJ10Hr00vF-BgSUAcbfGPQ7SLSGROsb2XI3faHqgZXh77inpr5PM8e6X3Si28pA6CkOhUmGRS7WfkR962NSs_k6q_bYDfq7pwUSByulYxsstu_PRqiFdFIHSoloV-y8DzGimfb6lgiy4grshCsLSST9AURNBJJFrtzpxWThwNP7lr-iTrp3Ngjt4lyE_ui_Ei8BgXAigaX_0G00]--></g></svg>