<svg xmlns="http://www.w3.org/2000/svg" xmlns:xlink="http://www.w3.org/1999/xlink" contentStyleType="text/css" data-diagram-type="STATE" height="1571px" preserveAspectRatio="none" style="width:706px;height:1571px;background:#FFFFFF;" version="1.1" viewBox="0 0 706 1571" width="706px" zoomAndPan="magnify"><defs/><g><path d="M233.69,87 L365.3541,87 A12.5,12.5 0 0 1 377.8541,99.5 L377.8541,113.2969 L221.19,113.2969 L221.19,99.5 A12.5,12.5 0 0 1 233.69,87" fill="#F1F1F1"/><rect fill="none" height="332.2969" rx="12.5" ry="12.5" style="stroke:#181818;stroke-width:0.5;" width="156.6641" x="221.19" y="87"/><line style="stroke:#181818;stroke-width:0.5;" x1="221.19" x2="377.8541" y1="113.2969" y2="113.2969"/><text fill="#000000" font-family="sans-serif" font-size="14" lengthAdjust="spacing" textLength="51.7207" x="273.6617" y="104.9951">ST_INIT</text><g><rect fill="#F1F1F1" height="50" rx="12.5" ry="12.5" style="stroke:#181818;stroke-width:0.5;" width="135.6641" x="233.19" y="181.2969"/><line style="stroke:#181818;stroke-width:0.5;" x1="233.19" x2="368.8541" y1="207.5938" y2="207.5938"/><text fill="#000000" font-family="sans-serif" font-size="14" lengthAdjust="spacing" textLength="115.6641" x="243.19" y="199.292">Hardware Check</text></g><g><rect fill="#F1F1F1" height="50" rx="12.5" ry="12.5" style="stroke:#181818;stroke-width:0.5;" width="125.4443" x="238.3" y="284.2969"/><line style="stroke:#181818;stroke-width:0.5;" x1="238.3" x2="363.7443" y1="310.5938" y2="310.5938"/><text fill="#000000" font-family="sans-serif" font-size="14" lengthAdjust="spacing" textLength="105.4443" x="248.3" y="302.292">Mount SD Card</text></g><ellipse cx="301.02" cy="134.2969" fill="#222222" rx="10" ry="10" style="stroke:#222222;stroke-width:1;"/><ellipse cx="301.02" cy="398.2969" fill="none" rx="11" ry="11" style="stroke:#222222;stroke-width:1;"/><ellipse cx="301.02" cy="398.2969" fill="#222222" rx="6" ry="6" style="stroke:#222222;stroke-width:1;"/><!--link *start*ST_INIT to HW_Check--><g class="link" data-entity-1="ent0004" data-entity-2="ent0003" data-link-type="dependency" data-source-line="12" id="lnk5"><path d="M301.02,144.7369 C301.02,153.9969 301.02,162.4869 301.02,174.9769" fill="none" id="*start*ST_INIT-to-HW_Check" style="stroke:#181818;stroke-width:1;"/><polygon fill="#181818" points="301.02,180.9769,305.02,171.9769,301.02,175.9769,297.02,171.9769,301.02,180.9769" style="stroke:#181818;stroke-width:1;"/></g><!--link HW_Check to SD_Mount--><g class="link" data-entity-1="ent0003" data-entity-2="ent0004" data-link-type="dependency" data-source-line="13" id="lnk6"><path d="M301.02,231.7469 C301.02,247.6269 301.02,262.2369 301.02,278.0769" fill="none" id="HW_Check-to-SD_Mount" style="stroke:#181818;stroke-width:1;"/><polygon fill="#181818" points="301.02,284.0769,305.02,275.0769,301.02,279.0769,297.02,275.0769,301.02,284.0769" style="stroke:#181818;stroke-width:1;"/><text fill="#000000" font-family="sans-serif" font-size="13" lengthAdjust="spacing" textLength="18.7573" x="302.02" y="262.3638">OK</text></g><!--link SD_Mount to *end*ST_INIT--><g class="link" data-entity-1="ent0004" data-entity-2="ent0007" data-link-type="dependency" data-source-line="14" id="lnk8"><path d="M301.02,334.5269 C301.02,351.8269 301.02,368.2169 301.02,381.0469" fill="none" id="SD_Mount-to-*end*ST_INIT" style="stroke:#181818;stroke-width:1;"/><polygon fill="#181818" points="301.02,387.0469,305.02,378.0469,301.02,382.0469,297.02,378.0469,301.02,387.0469" style="stroke:#181818;stroke-width:1;"/><text fill="#000000" font-family="sans-serif" font-size="13" lengthAdjust="spacing" textLength="52.3301" x="302.02" y="365.3638">Success</text></g><path d="M150.99,496.3 L280.0564,496.3 A12.5,12.5 0 0 1 292.5564,508.8 L292.5564,522.5969 L138.49,522.5969 L138.49,508.8 A12.5,12.5 0 0 1 150.99,496.3" fill="#F1F1F1"/><rect fill="none" height="229.2969" rx="12.5" ry="12.5" style="stroke:#181818;stroke-width:0.5;" width="154.0664" x="138.49" y="496.3"/><line style="stroke:#181818;stroke-width:0.5;" x1="138.49" x2="292.5564" y1="522.5969" y2="522.5969"/><text fill="#000000" font-family="sans-serif" font-size="14" lengthAdjust="spacing" textLength="134.0664" x="148.49" y="514.2951">ST_WAIT_SD_CARD</text><g><rect fill="#F1F1F1" height="50" rx="12.5" ry="12.5" style="stroke:#181818;stroke-width:0.5;" width="114.2539" x="150.49" y="590.5969"/><line style="stroke:#181818;stroke-width:0.5;" x1="150.49" x2="264.7439" y1="616.8938" y2="616.8938"/><text fill="#000000" font-family="sans-serif" font-size="14" lengthAdjust="spacing" textLength="94.2539" x="160.49" y="608.592">Polling for SD</text></g><ellipse cx="207.62" cy="543.5969" fill="#222222" rx="10" ry="10" style="stroke:#222222;stroke-width:1;"/><ellipse cx="207.62" cy="704.5969" fill="none" rx="11" ry="11" style="stroke:#222222;stroke-width:1;"/><ellipse cx="207.62" cy="704.5969" fill="#222222" rx="6" ry="6" style="stroke:#222222;stroke-width:1;"/><!--link *start*ST_WAIT_SD_CARD to SD_Poll--><g class="link" data-entity-1="ent0011" data-entity-2="ent0006" data-link-type="dependency" data-source-line="22" id="lnk12"><path d="M207.62,554.0369 C207.62,563.2969 207.62,571.7869 207.62,584.2769" fill="none" id="*start*ST_WAIT_SD_CARD-to-SD_Poll" style="stroke:#181818;stroke-width:1;"/><polygon fill="#181818" points="207.62,590.2769,211.62,581.2769,207.62,585.2769,203.62,581.2769,207.62,590.2769" style="stroke:#181818;stroke-width:1;"/></g><!--link SD_Poll to *end*ST_WAIT_SD_CARD--><g class="link" data-entity-1="ent0006" data-entity-2="ent0013" data-link-type="dependency" data-source-line="23" id="lnk14"><path d="M207.62,640.8269 C207.62,658.1269 207.62,674.5169 207.62,687.3469" fill="none" id="SD_Poll-to-*end*ST_WAIT_SD_CARD" style="stroke:#181818;stroke-width:1;"/><polygon fill="#181818" points="207.62,693.3469,211.62,684.3469,207.62,688.3469,203.62,684.3469,207.62,693.3469" style="stroke:#181818;stroke-width:1;"/><text fill="#000000" font-family="sans-serif" font-size="13" lengthAdjust="spacing" textLength="53.5361" x="208.62" y="671.6638">Inserted</text></g><g><rect fill="#F1F1F1" height="50" rx="12.5" ry="12.5" style="stroke:#181818;stroke-width:0.5;" width="75.9932" x="338.53" y="585.95"/><line style="stroke:#181818;stroke-width:0.5;" x1="338.53" x2="414.5232" y1="612.2469" y2="612.2469"/><text fill="#000000" font-family="sans-serif" font-size="14" lengthAdjust="spacing" textLength="55.9932" x="348.53" y="603.9451">ST_IDLE</text></g><path d="M19.5,802.6 L365.5452,802.6 A12.5,12.5 0 0 1 378.0452,815.1 L378.0452,828.8969 L7,828.8969 L7,815.1 A12.5,12.5 0 0 1 19.5,802.6" fill="#F1F1F1"/><rect fill="none" height="305.5938" rx="12.5" ry="12.5" style="stroke:#181818;stroke-width:0.5;" width="371.0452" x="7" y="802.6"/><line style="stroke:#181818;stroke-width:0.5;" x1="7" x2="378.0452" y1="828.8969" y2="828.8969"/><text fill="#000000" font-family="sans-serif" font-size="14" lengthAdjust="spacing" textLength="109.7646" x="137.6403" y="820.5951">ST_RECORDING</text><g><rect fill="#D3D3D3" height="50" rx="12.5" ry="12.5" style="stroke:#181818;stroke-width:0.5;" width="124.2275" x="93.4" y="896.8969"/><line style="stroke:#181818;stroke-width:0.5;" x1="93.4" x2="217.6275" y1="923.1938" y2="923.1938"/><text fill="#000000" font-family="sans-serif" font-size="14" lengthAdjust="spacing" textLength="104.2275" x="103.4" y="914.892">Awaiting Wake</text></g><path d="M31.5,999.8969 L279.528,999.8969 A12.5,12.5 0 0 1 292.028,1012.3969 L292.028,1026.1938 L19,1026.1938 L19,1012.3969 A12.5,12.5 0 0 1 31.5,999.8969" fill="#F1F1F1"/><rect fill="none" height="98.2969" rx="12.5" ry="12.5" style="stroke:#181818;stroke-width:0.5;" width="273.028" x="19" y="999.8969"/><line style="stroke:#181818;stroke-width:0.5;" x1="19" x2="292.028" y1="1026.1938" y2="1026.1938"/><text fill="#000000" font-family="sans-serif" font-size="14" lengthAdjust="spacing" textLength="103.6738" x="103.6771" y="1017.892">Saving session</text><g><rect fill="#F1F1F1" height="50" rx="12.5" ry="12.5" style="stroke:#181818;stroke-width:0.5;" width="84.3535" x="31" y="1038.1938"/><line style="stroke:#181818;stroke-width:0.5;" x1="31" x2="115.3535" y1="1064.4906" y2="1064.4906"/><text fill="#000000" font-family="sans-serif" font-size="14" lengthAdjust="spacing" textLength="64.3535" x="41" y="1056.1889">Buffering</text></g><g><rect fill="#F1F1F1" height="50" rx="12.5" ry="12.5" style="stroke:#181818;stroke-width:0.5;" width="81.708" x="201.32" y="1038.1938"/><line style="stroke:#181818;stroke-width:0.5;" x1="201.32" x2="283.028" y1="1064.4906" y2="1064.4906"/><text fill="#000000" font-family="sans-serif" font-size="14" lengthAdjust="spacing" textLength="61.708" x="211.32" y="1056.1889">SD Write</text></g><!--link Buff to Write--><g class="link" data-entity-1="ent0011" data-entity-2="ent0012" data-link-type="dependency" data-source-line="38" id="lnk18"><path d="M115.82,1063.1938 C141.93,1063.1938 169.17,1063.1938 195,1063.1938" fill="none" id="Buff-to-Write" style="stroke:#181818;stroke-width:1;"/><polygon fill="#181818" points="201,1063.1938,192,1059.1938,196,1063.1938,192,1067.1938,201,1063.1938" style="stroke:#181818;stroke-width:1;"/><text fill="#000000" font-family="sans-serif" font-size="13" lengthAdjust="spacing" textLength="66.7266" x="125.34" y="1056.2606">Buffer Full</text></g><ellipse cx="155.51" cy="849.8969" fill="#222222" rx="10" ry="10" style="stroke:#222222;stroke-width:1;"/><g class="entity" data-qualified-name="ST_RECORDING.GMN2" data-source-line="40" id="ent0003"><path d="M235.99,901.7669 L235.99,917.8969 L218.1,921.8969 L235.99,925.8969 L235.99,942.0325 A0,0 0 0 0 235.99,942.0325 L369.0452,942.0325 A0,0 0 0 0 369.0452,942.0325 L369.0452,911.7669 L359.0452,901.7669 L235.99,901.7669 A0,0 0 0 0 235.99,901.7669" fill="#FAFAFA" style="stroke:#181818;stroke-width:0.5;"/><path d="M359.0452,901.7669 L359.0452,911.7669 L369.0452,911.7669 L359.0452,901.7669" fill="#FAFAFA" style="stroke:#181818;stroke-width:0.5;"/><text fill="#000000" font-family="sans-serif" font-size="13" lengthAdjust="spacing" textLength="61.5088" x="241.99" y="918.8338">Proximity</text><text fill="#000000" font-family="sans-serif" font-size="13" lengthAdjust="spacing" textLength="112.0552" x="241.99" y="933.9666">detection started</text></g><!--link *start*ST_RECORDING to AwaitingWake--><g class="link" data-entity-1="ent0019" data-entity-2="ent0009" data-link-type="dependency" data-source-line="41" id="lnk20"><path d="M155.51,860.3369 C155.51,869.5969 155.51,878.0969 155.51,890.5869" fill="none" id="*start*ST_RECORDING-to-AwaitingWake" style="stroke:#181818;stroke-width:1;"/><polygon fill="#181818" points="155.51,896.5869,159.51,887.5869,155.51,891.5869,151.51,887.5869,155.51,896.5869" style="stroke:#181818;stroke-width:1;"/></g><!--link AwaitingWake to Saving--><g class="link" data-entity-1="ent0009" data-entity-2="ent0010" data-link-type="dependency" data-source-line="42" id="lnk21"><path d="M105.38,947.3869 C99.43,952.3569 94.18,958.1769 90.51,964.8969 C84.03,976.8069 83.475,983.7365 90.585,994.7465" fill="none" id="AwaitingWake-to-Saving" style="stroke:#181818;stroke-width:1;"/><polygon fill="#181818" points="93.84,999.7869,92.3178,990.0564,91.1275,995.5866,85.5973,994.3963,93.84,999.7869" style="stroke:#181818;stroke-width:1;"/><text fill="#000000" font-family="sans-serif" font-size="13" lengthAdjust="spacing" textLength="107.707" x="91.51" y="977.9638">MIC_WAKE Pulse</text></g><!--link Saving to AwaitingWake--><g class="link" data-entity-1="ent0010" data-entity-2="ent0009" data-link-type="dependency" data-source-line="43" id="lnk22"><path d="M192.25,999.4169 C195.19,993.7369 197.72,987.8369 199.51,981.8969 C201.7,974.6669 202.49,971.8469 199.51,964.8969 C196.77,958.4969 196.5812,957.0135 191.7812,951.7935" fill="none" id="Saving-to-AwaitingWake" style="stroke:#181818;stroke-width:1;"/><polygon fill="#181818" points="187.72,947.3769,190.8675,956.7093,191.1044,951.0574,196.7563,951.2943,187.72,947.3769" style="stroke:#181818;stroke-width:1;"/><text fill="#000000" font-family="sans-serif" font-size="13" lengthAdjust="spacing" textLength="61.9785" x="201.51" y="977.9638">Tail timer</text></g><path d="M280.62,1312.19 L412.4276,1312.19 A12.5,12.5 0 0 1 424.9276,1324.69 L424.9276,1338.4869 L268.12,1338.4869 L268.12,1324.69 A12.5,12.5 0 0 1 280.62,1312.19" fill="#F1F1F1"/><rect fill="none" height="126.5" rx="12.5" ry="12.5" style="stroke:#181818;stroke-width:0.5;" width="156.8076" x="268.12" y="1312.19"/><line style="stroke:#181818;stroke-width:0.5;" x1="268.12" x2="424.9276" y1="1338.4869" y2="1338.4869"/><text fill="#000000" font-family="sans-serif" font-size="14" lengthAdjust="spacing" textLength="136.8076" x="278.12" y="1330.1851">ST_POWER_SAVING</text><g><rect fill="#F1F1F1" height="78.2031" rx="12.5" ry="12.5" style="stroke:#181818;stroke-width:0.5;" width="111.623" x="280.12" y="1350.4869"/><line style="stroke:#181818;stroke-width:0.5;" x1="280.12" x2="391.743" y1="1376.7838" y2="1376.7838"/><text fill="#000000" font-family="sans-serif" font-size="14" lengthAdjust="spacing" textLength="31.541" x="320.161" y="1368.482">note</text><text fill="#000000" font-family="sans-serif" font-size="12" lengthAdjust="spacing" textLength="63.709" x="285.12" y="1392.9224">Close Files</text><text fill="#000000" font-family="sans-serif" font-size="12" lengthAdjust="spacing" textLength="47.3496" x="285.12" y="1406.8912">Mic OFF</text><text fill="#000000" font-family="sans-serif" font-size="12" lengthAdjust="spacing" textLength="91.623" x="285.12" y="1420.8599">Low-Power Adv</text></g><g><rect fill="#D3D3D3" height="50" rx="12.5" ry="12.5" style="stroke:#181818;stroke-width:0.5;" width="145.2275" x="262.91" y="1515.69"/><line style="stroke:#181818;stroke-width:0.5;" x1="262.91" x2="408.1375" y1="1541.9869" y2="1541.9869"/><text fill="#000000" font-family="sans-serif" font-size="14" lengthAdjust="spacing" textLength="125.2275" x="272.91" y="1533.6851">COLLAR_RELEASE</text></g><ellipse cx="299.52" cy="16" fill="#222222" rx="10" ry="10" style="stroke:#222222;stroke-width:1;"/><g><rect fill="#F1F1F1" height="50" rx="12.5" ry="12.5" style="stroke:#181818;stroke-width:0.5;" width="118.3145" x="133.37" y="1185.19"/><line style="stroke:#181818;stroke-width:0.5;" x1="133.37" x2="251.6845" y1="1211.4869" y2="1211.4869"/><text fill="#000000" font-family="sans-serif" font-size="14" lengthAdjust="spacing" textLength="98.3145" x="143.37" y="1203.1851">ST_DISK_FULL</text></g><g><rect fill="#F1F1F1" height="50" rx="12.5" ry="12.5" style="stroke:#181818;stroke-width:0.5;" width="120.3857" x="286.33" y="1185.19"/><line style="stroke:#181818;stroke-width:0.5;" x1="286.33" x2="406.7157" y1="1211.4869" y2="1211.4869"/><text fill="#000000" font-family="sans-serif" font-size="14" lengthAdjust="spacing" textLength="100.3857" x="296.33" y="1203.1851">ST_LOW_BATT</text></g><!--link *start* to ST_INIT--><g class="link" data-entity-1="ent0002" data-entity-2="ent0002" data-link-type="dependency" data-source-line="6" id="lnk3"><path d="M299.52,26.22 C299.52,38.15 299.52,54.55 299.52,80.77" fill="none" id="*start*-to-ST_INIT" style="stroke:#181818;stroke-width:1;"/><polygon fill="#181818" points="299.52,86.77,303.52,77.77,299.52,81.77,295.52,77.77,299.52,86.77" style="stroke:#181818;stroke-width:1;"/></g><!--link ST_INIT to ST_IDLE--><g class="link" data-entity-1="ent0002" data-entity-2="ent0007" data-link-type="dependency" data-source-line="17" id="lnk9"><path d="M335.32,419.55 C349.3,484.15 362.4912,545.1057 370.0012,579.8157" fill="none" id="ST_INIT-to-ST_IDLE" style="stroke:#181818;stroke-width:1;"/><polygon fill="#181818" points="371.27,585.68,373.2763,576.0377,370.2126,580.7931,365.4572,577.7294,371.27,585.68" style="stroke:#181818;stroke-width:1;"/><text fill="#000000" font-family="sans-serif" font-size="13" lengthAdjust="spacing" textLength="52.3301" x="345.52" y="462.3669">Success</text></g><!--link ST_INIT to ST_WAIT_SD_CARD--><g class="link" data-entity-1="ent0002" data-entity-2="ent0005" data-link-type="dependency" data-source-line="18" id="lnk10"><path d="M220.79,389.65 C212.46,409.13 205.29,429.35 200.52,449.3 C196.94,464.28 195.5559,474.2401 195.6459,490.0701" fill="none" id="ST_INIT-to-ST_WAIT_SD_CARD" style="stroke:#181818;stroke-width:1;"/><polygon fill="#181818" points="195.68,496.07,199.6288,487.0474,195.6516,491.0701,191.6289,487.0929,195.68,496.07" style="stroke:#181818;stroke-width:1;"/><text fill="#000000" font-family="sans-serif" font-size="13" lengthAdjust="spacing" textLength="54.5962" x="201.52" y="462.3669">SD Error</text></g><!--link ST_WAIT_SD_CARD to ST_INIT--><g class="link" data-entity-1="ent0005" data-entity-2="ent0002" data-link-type="dependency" data-source-line="25" id="lnk15"><path d="M252.65,495.83 C255.47,485.88 258.14,475.94 260.52,466.3 C264.26,451.21 266.5784,441.3122 269.8984,425.4822" fill="none" id="ST_WAIT_SD_CARD-to-ST_INIT" style="stroke:#181818;stroke-width:1;"/><polygon fill="#181818" points="271.13,419.61,265.3678,427.5973,270.1037,424.5035,273.1975,429.2394,271.13,419.61" style="stroke:#181818;stroke-width:1;"/><text fill="#000000" font-family="sans-serif" font-size="13" lengthAdjust="spacing" textLength="35.166" x="264.52" y="462.3669">Retry</text></g><!--link ST_IDLE to ST_RECORDING--><g class="link" data-entity-1="ent0007" data-entity-2="ent0008" data-link-type="dependency" data-source-line="30" id="lnk16"><path d="M369.41,636.34 C360.32,662.88 341.88,704.36 310.52,725.6 C234.65,776.99 166.42,686.24 106.52,755.6 C94.42,769.61 89.7871,779.601 90.7971,796.271" fill="none" id="ST_IDLE-to-ST_RECORDING" style="stroke:#181818;stroke-width:1;"/><polygon fill="#181818" points="91.16,802.26,94.6084,793.0346,90.8576,797.2692,86.623,793.5184,91.16,802.26" style="stroke:#181818;stroke-width:1;"/><text fill="#000000" font-family="sans-serif" font-size="13" lengthAdjust="spacing" textLength="143.1714" x="107.52" y="768.6669">BLE "Start" Command</text></g><!--link ST_RECORDING to ST_IDLE--><g class="link" data-entity-1="ent0008" data-entity-2="ent0007" data-link-type="dependency" data-source-line="48" id="lnk27"><path d="M266.34,802.13 C274.61,786.3 283.1,770.54 291.52,755.6 C299.27,741.85 302.34,739.09 310.52,725.6 C329.1,694.97 346.7509,664.3739 359.9109,641.2639" fill="none" id="ST_RECORDING-to-ST_IDLE" style="stroke:#181818;stroke-width:1;"/><polygon fill="#181818" points="362.88,636.05,354.9505,641.8915,360.4058,640.3949,361.9023,645.8502,362.88,636.05" style="stroke:#181818;stroke-width:1;"/><text fill="#000000" font-family="sans-serif" font-size="13" lengthAdjust="spacing" textLength="140.9688" x="292.52" y="768.6669">BLE "Stop" Command</text></g><!--link ST_IDLE to ST_POWER_SAVING--><g class="link" data-entity-1="ent0007" data-entity-2="ent0013" data-link-type="dependency" data-source-line="31" id="lnk17"><path d="M390.51,636.39 C405.57,664.21 428.55,711.52 437.52,755.6 C480.05,964.54 481.26,1029.65 424.52,1235.19 C417.19,1261.77 406.8319,1283.5601 393.1719,1306.5801" fill="none" id="ST_IDLE-to-ST_POWER_SAVING" style="stroke:#181818;stroke-width:1;"/><polygon fill="#181818" points="390.11,1311.74,398.1428,1306.0414,392.6616,1307.4401,391.2629,1301.9589,390.11,1311.74" style="stroke:#181818;stroke-width:1;"/><text fill="#000000" font-family="sans-serif" font-size="13" lengthAdjust="spacing" textLength="96.167" x="448.52" y="1151.2569">Battery &lt; 10%</text></g><!--link ST_RECORDING to ST_DISK_FULL--><g class="link" data-entity-1="ent0008" data-entity-2="ent0023" data-link-type="dependency" data-source-line="46" id="lnk24"><path d="M192.52,1108.55 C192.52,1138.25 192.52,1159.97 192.52,1178.76" fill="none" id="ST_RECORDING-to-ST_DISK_FULL" style="stroke:#181818;stroke-width:1;"/><polygon fill="#181818" points="192.52,1184.76,196.52,1175.76,192.52,1179.76,188.52,1175.76,192.52,1184.76" style="stroke:#181818;stroke-width:1;"/><text fill="#000000" font-family="sans-serif" font-size="13" lengthAdjust="spacing" textLength="61.4263" x="193.52" y="1151.2569">No Space</text></g><!--link ST_RECORDING to ST_LOW_BATT--><g class="link" data-entity-1="ent0008" data-entity-2="ent0025" data-link-type="dependency" data-source-line="47" id="lnk26"><path d="M285.22,1108.55 C303.31,1138.25 317.0678,1160.8463 328.5178,1179.6363" fill="none" id="ST_RECORDING-to-ST_LOW_BATT" style="stroke:#181818;stroke-width:1;"/><polygon fill="#181818" points="331.64,1184.76,330.3725,1174.993,329.0382,1180.4903,323.5409,1179.156,331.64,1184.76" style="stroke:#181818;stroke-width:1;"/><text fill="#000000" font-family="sans-serif" font-size="13" lengthAdjust="spacing" textLength="79.7329" x="313.52" y="1151.2569">Low Voltage</text></g><!--link ST_DISK_FULL to ST_POWER_SAVING--><g class="link" data-entity-1="ent0023" data-entity-2="ent0013" data-link-type="dependency" data-source-line="54" id="lnk28"><path d="M215.58,1235.63 C234.54,1255.73 258.1632,1280.7652 283.2332,1307.3452" fill="none" id="ST_DISK_FULL-to-ST_POWER_SAVING" style="stroke:#181818;stroke-width:1;"/><polygon fill="#181818" points="287.35,1311.71,284.0846,1302.4182,283.9193,1308.0727,278.2649,1307.9073,287.35,1311.71" style="stroke:#181818;stroke-width:1;"/></g><!--link ST_LOW_BATT to ST_POWER_SAVING--><g class="link" data-entity-1="ent0025" data-entity-2="ent0013" data-link-type="dependency" data-source-line="55" id="lnk29"><path d="M346.52,1235.63 C346.52,1255.73 346.52,1279.13 346.52,1305.71" fill="none" id="ST_LOW_BATT-to-ST_POWER_SAVING" style="stroke:#181818;stroke-width:1;"/><polygon fill="#181818" points="346.52,1311.71,350.52,1302.71,346.52,1306.71,342.52,1302.71,346.52,1311.71" style="stroke:#181818;stroke-width:1;"/></g><!--link ST_RECORDING to Release--><g class="link" data-entity-1="ent0008" data-entity-2="ent0015" data-link-type="dependency" data-source-line="58" id="lnk30"><path d="M125.14,1108.49 C109.47,1163.96 102.29,1226.67 121.52,1282.19 C156.04,1381.83 168.61,1411.47 243.52,1485.69 C255.1,1497.16 264.4002,1504.119 278.4302,1512.259" fill="none" id="ST_RECORDING-to-Release" style="stroke:#181818;stroke-width:1;"/><polygon fill="#181818" points="283.62,1515.27,277.8427,1507.2936,279.2952,1512.7608,273.828,1514.2133,283.62,1515.27" style="stroke:#181818;stroke-width:1;"/><text fill="#000000" font-family="sans-serif" font-size="13" lengthAdjust="spacing" textLength="116.8857" x="122.52" y="1278.2569">BLE "Open Collar"</text></g><!--link ST_IDLE to Release--><g class="link" data-entity-1="ent0007" data-entity-2="ent0015" data-link-type="dependency" data-source-line="59" id="lnk31"><path d="M404.03,636.41 C459.72,688.77 580.52,818.07 580.52,954.39 C580.52,954.39 580.52,954.39 580.52,1376.44 C580.52,1460.01 486.3628,1501.7846 414.1428,1522.2446" fill="none" id="ST_IDLE-to-Release" style="stroke:#181818;stroke-width:1;"/><polygon fill="#181818" points="408.37,1523.88,418.1195,1525.2754,413.1807,1522.5171,415.9389,1517.5783,408.37,1523.88" style="stroke:#181818;stroke-width:1;"/><text fill="#000000" font-family="sans-serif" font-size="13" lengthAdjust="spacing" textLength="116.8857" x="581.52" y="1214.7569">BLE "Open Collar"</text></g><!--link ST_POWER_SAVING to Release--><g class="link" data-entity-1="ent0013" data-entity-2="ent0015" data-link-type="dependency" data-source-line="60" id="lnk32"><path d="M271.27,1439.12 C264.11,1448.28 257.9,1458.19 253.52,1468.69 C245.59,1487.72 254.3921,1500.2424 272.8521,1512.0224" fill="none" id="ST_POWER_SAVING-to-Release" style="stroke:#181818;stroke-width:1;"/><polygon fill="#181818" points="277.91,1515.25,272.4749,1507.0366,273.6951,1512.5603,268.1714,1513.7805,277.91,1515.25" style="stroke:#181818;stroke-width:1;"/><text fill="#000000" font-family="sans-serif" font-size="13" lengthAdjust="spacing" textLength="116.8857" x="254.52" y="1481.7569">BLE "Open Collar"</text></g><!--link Release to ST_POWER_SAVING--><g class="link" data-entity-1="ent0015" data-entity-2="ent0013" data-link-type="dependency" data-source-line="62" id="lnk33"><path d="M358.75,1515.24 C365.51,1506.58 372.01,1496.33 375.52,1485.69 C380.47,1470.69 380.8569,1460.1503 377.1169,1444.7603" fill="none" id="Release-to-ST_POWER_SAVING" style="stroke:#181818;stroke-width:1;"/><polygon fill="#181818" points="375.7,1438.93,373.9384,1448.62,376.8807,1443.7886,381.7122,1446.7309,375.7,1438.93" style="stroke:#181818;stroke-width:1;"/><text fill="#000000" font-family="sans-serif" font-size="13" lengthAdjust="spacing" textLength="72.7949" x="379.52" y="1481.7569">Pulse Done</text></g><!--SRC=[XLJVY-8m47xlNp5utCk1SFSgYr3RkbksQwNrreVrAA56DzWcaiRrHFP_lqcQskW92mh9Dz_y-6OcRNQCxuaaDTI2Y_9TYfg2aWVgDHTBeuYYSFO09gJSRQKuy7KWAY4V7XAnPULu30dRlgj7IKxUf-Uz_VW3m-4OyaKHp-A5vxK1xDK4Qf714v7h8v4KWdTQxWP06dXQ5kRIarumdu8yX03PXfE7XG6HWxykdUFP7TioB1j6a3wZyNBNHkqyWlnGbhHfTF5TbPs0C8aSmerrwSUB0kC5VXPgLWYHb48wYgyOZlAvg2h6jx0H4jqwLHfr5FM8FJabnxoXKj4rrdoRnkaz4ZEgvCcTWLPqxgJgY-LdKP1cOJnxHAS9meDS4Qa648Yw9dnzIv-dooWhSl_LUX2bg3p10_pw-Tr9rqTrrFj7mfIMloGxQiHtY0RWibUzHqu-DB_18J31stwra0vxeKqEcmsL21k6lhbMdCzICjLcD2TZrJH0KGRHKamGc1vCwp_npmKQfDvn49lhMaSmb-8lgvawhVYQAbegB51dDDFfX-bw8NmLnBIqbJE2bpZ0UJv7C3zKZQPQosqGf2u8gq2ncaexpxxRTafXd3yNqzz9WkoPW7nFIdgNcAJBOk8lzCOauWYleb9aUvzgtuJT4R7lLwGV-zLsdBiMZY2eH4DXoYhQhFWBAo6TJbSSCmxdueXDzzSVLafV-Ps5yzoAxzbj9OCWJH8_Gmr9vEUH6Nn6AqgmY6_zH-i_bHt7gaptbAF8gY9oSFKElk1TTU4hljSPxpymimqG2ax_0G00]--></g></svg>