<?plantuml 1.2026.1beta5?><svg xmlns="http://www.w3.org/2000/svg" xmlns:xlink="http://www.w3.org/1999/xlink" contentStyleType="text/css" data-diagram-type="SEQUENCE" height="877px" preserveAspectRatio="none" style="width:782px;height:877px;background:#FFFFFF;" version="1.1" viewBox="0 0 782 877" width="782px" zoomAndPan="magnify"><defs/><g><g><title>SD Card Thread</title><rect fill="#FFFFFF" height="764.7891" style="stroke:#181818;stroke-width:1;" width="10" x="206.459" y="67.4297"/></g><rect fill="none" height="59.2656" style="stroke:#000000;stroke-width:1.5;" width="425.749" x="119.0469" y="82.4297"/><rect fill="none" height="627.3906" style="stroke:#000000;stroke-width:1.5;" width="687.4985" x="89.0469" y="197.8281"/><rect fill="none" height="244.9297" style="stroke:#000000;stroke-width:1.5;" width="667.4985" x="99.0469" y="221.9609"/><rect fill="none" height="171.6641" style="stroke:#000000;stroke-width:1.5;" width="647.4985" x="109.0469" y="246.0938"/><rect fill="none" height="61.2656" style="stroke:#000000;stroke-width:1.5;" width="450.0923" x="119.0469" y="312.3594"/><rect fill="none" height="337.3281" style="stroke:#000000;stroke-width:1.5;" width="530.4951" x="99.0469" y="480.8906"/><rect fill="none" height="219.9297" style="stroke:#000000;stroke-width:1.5;" width="510.4951" x="109.0469" y="505.0234"/><rect fill="none" height="153.6641" style="stroke:#000000;stroke-width:1.5;" width="490.4951" x="119.0469" y="564.2891"/><g class="participant-lifeline" data-entity-uid="part1" data-qualified-name="SD_Thread" id="part1-lifeline"><g><title>SD Card Thread</title><rect fill="#000000" fill-opacity="0.00000" height="805.9219" width="8" x="207.459" y="36.2969"/><line style="stroke:#181818;stroke-width:0.5;stroke-dasharray:5,5;" x1="211.0469" x2="211.0469" y1="36.2969" y2="842.2188"/></g></g><g class="participant-lifeline" data-entity-uid="part2" data-qualified-name="FS" id="part2-lifeline"><g><title>Zephyr FS . Disk</title><rect fill="#000000" fill-opacity="0.00000" height="805.9219" width="8" x="410.7129" y="36.2969"/><line style="stroke:#181818;stroke-width:0.5;stroke-dasharray:5,5;" x1="414.1714" x2="414.1714" y1="36.2969" y2="842.2188"/></g></g><g class="participant-lifeline" data-entity-uid="part3" data-qualified-name="Main" id="part3-lifeline"><g><title>Main Thread</title><rect fill="#000000" fill-opacity="0.00000" height="805.9219" width="8" x="575.8198" y="36.2969"/><line style="stroke:#181818;stroke-width:0.5;stroke-dasharray:5,5;" x1="579.2544" x2="579.2544" y1="36.2969" y2="842.2188"/></g></g><g class="participant participant-head" data-entity-uid="part1" data-qualified-name="SD_Thread" id="part1-head"><rect fill="#E3E3E3" height="30.2969" rx="2.5" ry="2.5" style="stroke:#181818;stroke-width:0.5;" width="124.8242" x="149.0469" y="5"/><text fill="#000000" font-family="sans-serif" font-size="14" lengthAdjust="spacing" textLength="110.8242" x="156.0469" y="24.9951">SD Card Thread</text></g><g class="participant participant-tail" data-entity-uid="part1" data-qualified-name="SD_Thread" id="part1-tail"><rect fill="#E3E3E3" height="30.2969" rx="2.5" ry="2.5" style="stroke:#181818;stroke-width:0.5;" width="124.8242" x="149.0469" y="841.2188"/><text fill="#000000" font-family="sans-serif" font-size="14" lengthAdjust="spacing" textLength="110.8242" x="156.0469" y="861.2139">SD Card Thread</text></g><g class="participant participant-head" data-entity-uid="part2" data-qualified-name="FS" id="part2-head"><rect fill="#E3E3E3" height="30.2969" rx="2.5" ry="2.5" style="stroke:#181818;stroke-width:0.5;" width="129.083" x="350.1714" y="5"/><text fill="#000000" font-family="sans-serif" font-size="14" lengthAdjust="spacing" textLength="115.083" x="357.1714" y="24.9951">Zephyr FS / Disk</text></g><g class="participant participant-tail" data-entity-uid="part2" data-qualified-name="FS" id="part2-tail"><rect fill="#E3E3E3" height="30.2969" rx="2.5" ry="2.5" style="stroke:#181818;stroke-width:0.5;" width="129.083" x="350.1714" y="841.2188"/><text fill="#000000" font-family="sans-serif" font-size="14" lengthAdjust="spacing" textLength="115.083" x="357.1714" y="861.2139">Zephyr FS / Disk</text></g><g class="participant participant-head" data-entity-uid="part3" data-qualified-name="Main" id="part3-head"><rect fill="#E3E3E3" height="30.2969" rx="2.5" ry="2.5" style="stroke:#181818;stroke-width:0.5;" width="101.1309" x="529.2544" y="5"/><text fill="#000000" font-family="sans-serif" font-size="14" lengthAdjust="spacing" textLength="87.1309" x="536.2544" y="24.9951">Main Thread</text></g><g class="participant participant-tail" data-entity-uid="part3" data-qualified-name="Main" id="part3-tail"><rect fill="#E3E3E3" height="30.2969" rx="2.5" ry="2.5" style="stroke:#181818;stroke-width:0.5;" width="101.1309" x="529.2544" y="841.2188"/><text fill="#000000" font-family="sans-serif" font-size="14" lengthAdjust="spacing" textLength="87.1309" x="536.2544" y="861.2139">Main Thread</text></g><g><title>SD Card Thread</title><rect fill="#FFFFFF" height="764.7891" style="stroke:#181818;stroke-width:1;" width="10" x="206.459" y="67.4297"/></g><g class="message" data-entity-1="part1" data-entity-2="part1" id="msg1"><polygon fill="#181818" points="194.459,63.4297,204.459,67.4297,194.459,71.4297,198.459,67.4297" style="stroke:#181818;stroke-width:1;"/><line style="stroke:#181818;stroke-width:1;" x1="0" x2="200.459" y1="67.4297" y2="67.4297"/><text fill="#000000" font-family="sans-serif" font-size="13" lengthAdjust="spacing" textLength="187.459" x="7" y="62.3638">sdcard_thread_fatfs_mount()</text></g><path d="M119.0469,82.4297 L195.6709,82.4297 L195.6709,89.5625 L185.6709,99.5625 L119.0469,99.5625 L119.0469,82.4297" fill="#EEEEEE" style="stroke:#000000;stroke-width:1.5;"/><rect fill="none" height="59.2656" style="stroke:#000000;stroke-width:1.5;" width="425.749" x="119.0469" y="82.4297"/><text fill="#000000" font-family="sans-serif" font-size="13" font-weight="bold" lengthAdjust="spacing" textLength="31.624" x="134.0469" y="95.4966">loop</text><text fill="#000000" font-family="sans-serif" font-size="11" font-weight="bold" lengthAdjust="spacing" textLength="113.3999" x="210.6709" y="94.6401">[until SD gpio set]</text><g class="message" data-entity-1="part1" data-entity-2="part1" id="msg2"><line style="stroke:#181818;stroke-width:1;" x1="216.459" x2="258.459" y1="120.6953" y2="120.6953"/><line style="stroke:#181818;stroke-width:1;" x1="258.459" x2="258.459" y1="120.6953" y2="133.6953"/><line style="stroke:#181818;stroke-width:1;" x1="217.459" x2="258.459" y1="133.6953" y2="133.6953"/><polygon fill="#181818" points="227.459,129.6953,217.459,133.6953,227.459,137.6953,223.459,133.6953" style="stroke:#181818;stroke-width:1;"/><text fill="#000000" font-family="sans-serif" font-size="13" lengthAdjust="spacing" textLength="108.9321" x="223.459" y="115.6294">k_msleep(1000);</text></g><path d="M353.9321,108.0625 L353.9321,133.0625 L523.9321,133.0625 L523.9321,118.0625 L513.9321,108.0625 L353.9321,108.0625" fill="#FAFAFA" style="stroke:#181818;stroke-width:0.5;"/><path d="M513.9321,108.0625 L513.9321,118.0625 L523.9321,118.0625 L513.9321,108.0625" fill="#FAFAFA" style="stroke:#181818;stroke-width:0.5;"/><text fill="#000000" font-family="sans-serif" font-size="13" lengthAdjust="spacing" textLength="149.4048" x="359.9321" y="125.1294">Wait power on SD card</text><g class="message" data-entity-1="part1" data-entity-2="part1" id="msg4"><line style="stroke:#181818;stroke-width:1;" x1="216.459" x2="258.459" y1="169.8281" y2="169.8281"/><line style="stroke:#181818;stroke-width:1;" x1="258.459" x2="258.459" y1="169.8281" y2="182.8281"/><line style="stroke:#181818;stroke-width:1;" x1="217.459" x2="258.459" y1="182.8281" y2="182.8281"/><polygon fill="#181818" points="227.459,178.8281,217.459,182.8281,227.459,186.8281,223.459,182.8281" style="stroke:#181818;stroke-width:1;"/><text fill="#000000" font-family="sans-serif" font-size="13" lengthAdjust="spacing" textLength="143.146" x="223.459" y="164.7622">sdcard_init(disk_pdrv)</text></g><path d="M89.0469,197.8281 L165.6709,197.8281 L165.6709,204.9609 L155.6709,214.9609 L89.0469,214.9609 L89.0469,197.8281" fill="#EEEEEE" style="stroke:#000000;stroke-width:1.5;"/><rect fill="none" height="627.3906" style="stroke:#000000;stroke-width:1.5;" width="687.4985" x="89.0469" y="197.8281"/><text fill="#000000" font-family="sans-serif" font-size="13" font-weight="bold" lengthAdjust="spacing" textLength="31.624" x="104.0469" y="210.895">loop</text><text fill="#000000" font-family="sans-serif" font-size="11" font-weight="bold" lengthAdjust="spacing" textLength="106.8149" x="180.6709" y="210.0386">[Not power save]</text><path d="M99.0469,221.9609 L175.6709,221.9609 L175.6709,229.0938 L165.6709,239.0938 L99.0469,239.0938 L99.0469,221.9609" fill="#EEEEEE" style="stroke:#000000;stroke-width:1.5;"/><rect fill="none" height="244.9297" style="stroke:#000000;stroke-width:1.5;" width="667.4985" x="99.0469" y="221.9609"/><text fill="#000000" font-family="sans-serif" font-size="13" font-weight="bold" lengthAdjust="spacing" textLength="31.624" x="114.0469" y="235.0278">loop</text><text fill="#000000" font-family="sans-serif" font-size="11" font-weight="bold" lengthAdjust="spacing" textLength="223.1797" x="190.6709" y="234.1714">[Not power save and not initialized]</text><path d="M109.0469,246.0938 L173.4897,246.0938 L173.4897,253.2266 L163.4897,263.2266 L109.0469,263.2266 L109.0469,246.0938" fill="#EEEEEE" style="stroke:#000000;stroke-width:1.5;"/><rect fill="none" height="171.6641" style="stroke:#000000;stroke-width:1.5;" width="647.4985" x="109.0469" y="246.0938"/><text fill="#000000" font-family="sans-serif" font-size="13" font-weight="bold" lengthAdjust="spacing" textLength="19.4429" x="124.0469" y="259.1606">alt</text><text fill="#000000" font-family="sans-serif" font-size="11" font-weight="bold" lengthAdjust="spacing" textLength="90.5352" x="188.4897" y="258.3042">[Card present]</text><g class="message" data-entity-1="part1" data-entity-2="part1" id="msg5"><line style="stroke:#181818;stroke-width:1;" x1="216.459" x2="258.459" y1="284.3594" y2="284.3594"/><line style="stroke:#181818;stroke-width:1;" x1="258.459" x2="258.459" y1="284.3594" y2="297.3594"/><line style="stroke:#181818;stroke-width:1;" x1="217.459" x2="258.459" y1="297.3594" y2="297.3594"/><polygon fill="#181818" points="227.459,293.3594,217.459,297.3594,227.459,301.3594,223.459,297.3594" style="stroke:#181818;stroke-width:1;"/><text fill="#000000" font-family="sans-serif" font-size="13" lengthAdjust="spacing" textLength="113.2231" x="223.459" y="279.2935">sdcard_disc_init()</text></g><path d="M119.0469,312.3594 L183.4897,312.3594 L183.4897,319.4922 L173.4897,329.4922 L119.0469,329.4922 L119.0469,312.3594" fill="#EEEEEE" style="stroke:#000000;stroke-width:1.5;"/><rect fill="none" height="61.2656" style="stroke:#000000;stroke-width:1.5;" width="450.0923" x="119.0469" y="312.3594"/><text fill="#000000" font-family="sans-serif" font-size="13" font-weight="bold" lengthAdjust="spacing" textLength="19.4429" x="134.0469" y="325.4263">alt</text><text fill="#000000" font-family="sans-serif" font-size="11" font-weight="bold" lengthAdjust="spacing" textLength="114.8447" x="198.4897" y="324.5698">[Result == FR_OK]</text><g class="message" data-entity-1="part1" data-entity-2="part1" id="msg6"><line style="stroke:#181818;stroke-width:1;" x1="216.459" x2="258.459" y1="350.625" y2="350.625"/><line style="stroke:#181818;stroke-width:1;" x1="258.459" x2="258.459" y1="350.625" y2="363.625"/><line style="stroke:#181818;stroke-width:1;" x1="217.459" x2="258.459" y1="363.625" y2="363.625"/><polygon fill="#181818" points="227.459,359.625,217.459,363.625,227.459,367.625,223.459,363.625" style="stroke:#181818;stroke-width:1;"/><text fill="#000000" font-family="sans-serif" font-size="13" lengthAdjust="spacing" textLength="165.0073" x="223.459" y="345.5591">sd_card_initialized = true</text></g><path d="M410.0073,337.9922 L410.0073,362.9922 L548.0073,362.9922 L548.0073,347.9922 L538.0073,337.9922 L410.0073,337.9922" fill="#FAFAFA" style="stroke:#181818;stroke-width:0.5;"/><path d="M538.0073,337.9922 L538.0073,347.9922 L548.0073,347.9922 L538.0073,337.9922" fill="#FAFAFA" style="stroke:#181818;stroke-width:0.5;"/><text fill="#000000" font-family="sans-serif" font-size="13" lengthAdjust="spacing" textLength="117.6729" x="416.0073" y="355.0591">SD card initialized</text><line style="stroke:#000000;stroke-width:1;stroke-dasharray:2,2;" x1="119.0469" x2="569.1392" y1="372.625" y2="372.625"/><line style="stroke:#000000;stroke-width:1;stroke-dasharray:2,2;" x1="109.0469" x2="756.5454" y1="381.625" y2="381.625"/><g class="message" data-entity-1="part1" data-entity-2="part3" id="msg8"><polygon fill="#181818" points="567.8198,402.7578,577.8198,406.7578,567.8198,410.7578,571.8198,406.7578" style="stroke:#181818;stroke-width:1;"/><line style="stroke:#181818;stroke-width:1;" x1="216.459" x2="573.8198" y1="406.7578" y2="406.7578"/><text fill="#000000" font-family="sans-serif" font-size="13" lengthAdjust="spacing" textLength="253.2461" x="223.459" y="401.6919">ble_update_status(ST_WAIT_SD_CARD)</text></g><path d="M584,387.625 L584,412.625 L740,412.625 L740,397.625 L730,387.625 L584,387.625" fill="#FAFAFA" style="stroke:#181818;stroke-width:0.5;"/><path d="M730,387.625 L730,397.625 L740,397.625 L730,387.625" fill="#FAFAFA" style="stroke:#181818;stroke-width:0.5;"/><text fill="#000000" font-family="sans-serif" font-size="13" lengthAdjust="spacing" textLength="135.7256" x="590" y="404.6919">No SD card available</text><g class="message" data-entity-1="part1" data-entity-2="part1" id="msg10"><line style="stroke:#181818;stroke-width:1;" x1="216.459" x2="258.459" y1="445.8906" y2="445.8906"/><line style="stroke:#181818;stroke-width:1;" x1="258.459" x2="258.459" y1="445.8906" y2="458.8906"/><line style="stroke:#181818;stroke-width:1;" x1="217.459" x2="258.459" y1="458.8906" y2="458.8906"/><polygon fill="#181818" points="227.459,454.8906,217.459,458.8906,227.459,462.8906,223.459,458.8906" style="stroke:#181818;stroke-width:1;"/><text fill="#000000" font-family="sans-serif" font-size="13" lengthAdjust="spacing" textLength="104.5522" x="223.459" y="440.8247">k_msleep(2500)</text></g><path d="M99.0469,480.8906 L163.4897,480.8906 L163.4897,488.0234 L153.4897,498.0234 L99.0469,498.0234 L99.0469,480.8906" fill="#EEEEEE" style="stroke:#000000;stroke-width:1.5;"/><rect fill="none" height="337.3281" style="stroke:#000000;stroke-width:1.5;" width="530.4951" x="99.0469" y="480.8906"/><text fill="#000000" font-family="sans-serif" font-size="13" font-weight="bold" lengthAdjust="spacing" textLength="19.4429" x="114.0469" y="493.9575">alt</text><text fill="#000000" font-family="sans-serif" font-size="11" font-weight="bold" lengthAdjust="spacing" textLength="90.5352" x="178.4897" y="493.1011">[Card present]</text><path d="M109.0469,505.0234 L173.4897,505.0234 L173.4897,512.1563 L163.4897,522.1563 L109.0469,522.1563 L109.0469,505.0234" fill="#EEEEEE" style="stroke:#000000;stroke-width:1.5;"/><rect fill="none" height="219.9297" style="stroke:#000000;stroke-width:1.5;" width="510.4951" x="109.0469" y="505.0234"/><text fill="#000000" font-family="sans-serif" font-size="13" font-weight="bold" lengthAdjust="spacing" textLength="19.4429" x="124.0469" y="518.0903">alt</text><text fill="#000000" font-family="sans-serif" font-size="11" font-weight="bold" lengthAdjust="spacing" textLength="217.3521" x="188.4897" y="517.2339">[Not power save and not mounted]</text><g class="message" data-entity-1="part1" data-entity-2="part2" id="msg11"><polygon fill="#181818" points="402.7129,542.2891,412.7129,546.2891,402.7129,550.2891,406.7129,546.2891" style="stroke:#181818;stroke-width:1;"/><line style="stroke:#181818;stroke-width:1;" x1="216.459" x2="408.7129" y1="546.2891" y2="546.2891"/><text fill="#000000" font-family="sans-serif" font-size="13" lengthAdjust="spacing" textLength="102.5718" x="223.459" y="541.2231">sdcard_mount()</text></g><path d="M419,527.1563 L419,552.1563 L553,552.1563 L553,537.1563 L543,527.1563 L419,527.1563" fill="#FAFAFA" style="stroke:#181818;stroke-width:0.5;"/><path d="M543,527.1563 L543,537.1563 L553,537.1563 L543,527.1563" fill="#FAFAFA" style="stroke:#181818;stroke-width:0.5;"/><text fill="#000000" font-family="sans-serif" font-size="13" lengthAdjust="spacing" textLength="113.6802" x="425" y="544.2231">SD card mounted</text><path d="M119.0469,564.2891 L183.4897,564.2891 L183.4897,571.4219 L173.4897,581.4219 L119.0469,581.4219 L119.0469,564.2891" fill="#EEEEEE" style="stroke:#000000;stroke-width:1.5;"/><rect fill="none" height="153.6641" style="stroke:#000000;stroke-width:1.5;" width="490.4951" x="119.0469" y="564.2891"/><text fill="#000000" font-family="sans-serif" font-size="13" font-weight="bold" lengthAdjust="spacing" textLength="19.4429" x="134.0469" y="577.356">alt</text><text fill="#000000" font-family="sans-serif" font-size="11" font-weight="bold" lengthAdjust="spacing" textLength="114.8447" x="198.4897" y="576.4995">[Result == FR_OK]</text><path d="M221,586.4219 L221,626.4219 L348,626.4219 L348,596.4219 L338,586.4219 L221,586.4219" fill="#FAFAFA" style="stroke:#181818;stroke-width:0.5;"/><path d="M338,586.4219 L338,596.4219 L348,596.4219 L338,586.4219" fill="#FAFAFA" style="stroke:#181818;stroke-width:0.5;"/><text fill="#000000" font-family="sans-serif" font-size="13" lengthAdjust="spacing" textLength="12.4033" x="227" y="603.4888">1.</text><text fill="#000000" font-family="sans-serif" font-size="13" lengthAdjust="spacing" textLength="89.4766" x="243.5356" y="603.4888">ifdef List Files</text><text fill="#000000" font-family="sans-serif" font-size="13" lengthAdjust="spacing" textLength="92.3521" x="227" y="618.6216">sdcard_lsdir();</text><g class="message" data-entity-1="part1" data-entity-2="part1" id="msg13"><line style="stroke:#181818;stroke-width:1;" x1="216.459" x2="258.459" y1="652.8203" y2="652.8203"/><line style="stroke:#181818;stroke-width:1;" x1="258.459" x2="258.459" y1="652.8203" y2="665.8203"/><line style="stroke:#181818;stroke-width:1;" x1="217.459" x2="258.459" y1="665.8203" y2="665.8203"/><polygon fill="#181818" points="227.459,661.8203,217.459,665.8203,227.459,669.8203,223.459,665.8203" style="stroke:#181818;stroke-width:1;"/><text fill="#000000" font-family="sans-serif" font-size="13" lengthAdjust="spacing" textLength="150.2109" x="223.459" y="647.7544">is_sdcard_ready = true</text></g><line style="stroke:#000000;stroke-width:1;stroke-dasharray:2,2;" x1="119.0469" x2="609.542" y1="674.8203" y2="674.8203"/><g class="message" data-entity-1="part1" data-entity-2="part1" id="msg14"><line style="stroke:#181818;stroke-width:1;" x1="216.459" x2="258.459" y1="696.9531" y2="696.9531"/><line style="stroke:#181818;stroke-width:1;" x1="258.459" x2="258.459" y1="696.9531" y2="709.9531"/><line style="stroke:#181818;stroke-width:1;" x1="217.459" x2="258.459" y1="709.9531" y2="709.9531"/><polygon fill="#181818" points="227.459,705.9531,217.459,709.9531,227.459,713.9531,223.459,709.9531" style="stroke:#181818;stroke-width:1;"/><text fill="#000000" font-family="sans-serif" font-size="13" lengthAdjust="spacing" textLength="169.2539" x="223.459" y="691.8872">sd_card_initialized = false</text></g><path d="M414.2539,684.3203 L414.2539,709.3203 L588.2539,709.3203 L588.2539,694.3203 L578.2539,684.3203 L414.2539,684.3203" fill="#FAFAFA" style="stroke:#181818;stroke-width:0.5;"/><path d="M578.2539,684.3203 L578.2539,694.3203 L588.2539,694.3203 L578.2539,684.3203" fill="#FAFAFA" style="stroke:#181818;stroke-width:0.5;"/><text fill="#000000" font-family="sans-serif" font-size="13" lengthAdjust="spacing" textLength="153.8291" x="420.2539" y="701.3872">SD card mounted failed</text><line style="stroke:#000000;stroke-width:1;stroke-dasharray:2,2;" x1="99.0469" x2="629.542" y1="732.9531" y2="732.9531"/><g class="message" data-entity-1="part1" data-entity-2="part1" id="msg16"><line style="stroke:#181818;stroke-width:1;" x1="216.459" x2="258.459" y1="755.0859" y2="755.0859"/><line style="stroke:#181818;stroke-width:1;" x1="258.459" x2="258.459" y1="755.0859" y2="768.0859"/><line style="stroke:#181818;stroke-width:1;" x1="217.459" x2="258.459" y1="768.0859" y2="768.0859"/><polygon fill="#181818" points="227.459,764.0859,217.459,768.0859,227.459,772.0859,223.459,768.0859" style="stroke:#181818;stroke-width:1;"/><text fill="#000000" font-family="sans-serif" font-size="13" lengthAdjust="spacing" textLength="169.2539" x="223.459" y="750.02">sd_card_initialized = false</text></g><path d="M414.2539,742.4531 L414.2539,767.4531 L577.2539,767.4531 L577.2539,752.4531 L567.2539,742.4531 L414.2539,742.4531" fill="#FAFAFA" style="stroke:#181818;stroke-width:0.5;"/><path d="M567.2539,742.4531 L567.2539,752.4531 L577.2539,752.4531 L567.2539,742.4531" fill="#FAFAFA" style="stroke:#181818;stroke-width:0.5;"/><text fill="#000000" font-family="sans-serif" font-size="13" lengthAdjust="spacing" textLength="142.8921" x="420.2539" y="759.52">Card no more present</text><g class="message" data-entity-1="part1" data-entity-2="part1" id="msg18"><line style="stroke:#181818;stroke-width:1;" x1="216.459" x2="258.459" y1="797.2188" y2="797.2188"/><line style="stroke:#181818;stroke-width:1;" x1="258.459" x2="258.459" y1="797.2188" y2="810.2188"/><line style="stroke:#181818;stroke-width:1;" x1="217.459" x2="258.459" y1="810.2188" y2="810.2188"/><polygon fill="#181818" points="227.459,806.2188,217.459,810.2188,227.459,814.2188,223.459,810.2188" style="stroke:#181818;stroke-width:1;"/><text fill="#000000" font-family="sans-serif" font-size="13" lengthAdjust="spacing" textLength="148.1543" x="223.459" y="792.1528">sdcard_off_and_reset()</text></g><?plantuml-src fLHDYzim4BthLmpRYtCeJHTwSKbXsH0exMwN9B1G2c9goSaGHnAIdBBzzPKShpyIfswe3hQbcNdpPkR9RaVAeCKzF6YbiwtLUmdUbfAvnlA4rbD61fL_GY58RU1sofXfZ-5cDOTxj0BMMojHt00wMCtvSTVt_2xDziN2OWNlO4vkL_akLdsd1oJLnOfxnjv-Qa4X1IUoa9BxQizpzBdZUrqgdqmOPfuEw6M71IkqDX3CL8HJs1ZIuAHd45OBsysHmexlNI6bITvFfzF9nyfNwG1hQRFrAJmZUJ3wbxIWLKIDZ9XK8Tim9AGrQrBa4n7gvqROmuJLz1xrAvx3Wwpo3Pm3AX5vG4GXBEYt59LlN5ZuuooCbKugtnWk5zesCp3AZjmclRW8kfIk3A_P31PB_krBppw2pPkQQxOmEwhi5ADjReYh-pbOPLooSDSYeASmg1ofECLIxVuCjrTPfSqKVXQIbqO4ZN7dqPSkMQtvyztdDG_UztVBUR-1NTKyweOO7W8L35YiIuIDjhGHvks784nM1y8nyg82ek62aggBSzAJNlPmOHkLlDwogoNI6OxEUmMzeLp87BwIyx08qt4_L9siS89iKb--qKaFrV7NJfBZTQ9uy38ap46TNQds7FzPh7K9eogjltli_ejLZqqb8AK36olFX3Js6z5vpeEoU0nhX58fkte8UVv__WC0?></g></svg>