<svg xmlns="http://www.w3.org/2000/svg" xmlns:xlink="http://www.w3.org/1999/xlink" contentStyleType="text/css" data-diagram-type="DESCRIPTION" height="445px" preserveAspectRatio="none" style="width:886px;height:445px;background:#FFFFFF;" version="1.1" viewBox="0 0 886 445" width="886px" zoomAndPan="magnify"><defs/><g><!--cluster Release Collar--><g class="cluster" data-qualified-name="Release Collar" data-source-line="8" id="ent0003"><path d="M228.17,6 L341.7305,6 A3.75,3.75 0 0 1 344.2305,8.5 L351.2305,28.2969 L877.09,28.2969 A2.5,2.5 0 0 1 879.59,30.7969 L879.59,435.5 A2.5,2.5 0 0 1 877.09,438 L228.17,438 A2.5,2.5 0 0 1 225.67,435.5 L225.67,8.5 A2.5,2.5 0 0 1 228.17,6" fill="none" style="stroke:#000000;stroke-width:1.5;"/><line style="stroke:#000000;stroke-width:1.5;" x1="225.67" x2="351.2305" y1="28.2969" y2="28.2969"/><text fill="#000000" font-family="sans-serif" font-size="14" font-weight="bold" lengthAdjust="spacing" textLength="112.5605" x="229.67" y="20.9951">Release Collar</text></g><!--entity LF--><g class="entity" data-qualified-name="Release Collar.LF" data-source-line="9" id="ent0004"><ellipse cx="378.8744" cy="79.9957" fill="#F1F1F1" rx="122.5044" ry="39.0357" style="stroke:#181818;stroke-width:0.5;"/><text fill="#000000" font-family="sans-serif" font-size="14" font-weight="bold" lengthAdjust="spacing" textLength="64.9551" x="339.0177" y="58.8201">Look for</text><line style="stroke:#181818;stroke-width:1;" x1="270.9665" x2="486.7822" y1="62.1219" y2="62.1219"/><text fill="#000000" font-family="sans-serif" font-size="14" lengthAdjust="spacing" textLength="182.2666" x="280.362" y="79.117">Starts a BLE Scan process</text><text fill="#000000" font-family="sans-serif" font-size="14" lengthAdjust="spacing" textLength="188.665" x="277.1627" y="95.4139">to discover nearby devices</text></g><!--entity DD--><g class="entity" data-qualified-name="Release Collar.DD" data-source-line="15" id="ent0005"><ellipse cx="715.3266" cy="82.9962" fill="#F1F1F1" rx="82.6866" ry="42.1762" style="stroke:#181818;stroke-width:0.5;"/><text fill="#000000" font-family="sans-serif" font-size="14" font-weight="bold" lengthAdjust="spacing" textLength="95.4434" x="662.5361" y="66.4469">scan results</text><line style="stroke:#181818;stroke-width:1;" x1="637.8248" x2="792.8284" y1="69.7486" y2="69.7486"/><text fill="#000000" font-family="sans-serif" font-size="14" lengthAdjust="spacing" textLength="115.7188" x="652.3984" y="86.7437">Provides a list of</text><text fill="#000000" font-family="sans-serif" font-size="14" lengthAdjust="spacing" textLength="106.7227" x="654.6713" y="103.0406">nearby devices</text></g><!--entity CT--><g class="entity" data-qualified-name="Release Collar.CT" data-source-line="21" id="ent0006"><ellipse cx="378.8657" cy="192.9986" fill="#F1F1F1" rx="122.7757" ry="39.1686" style="stroke:#181818;stroke-width:0.5;"/><text fill="#000000" font-family="sans-serif" font-size="14" font-weight="bold" lengthAdjust="spacing" textLength="88.3545" x="318.4044" y="174.5732">Connect To</text><line style="stroke:#181818;stroke-width:1;" x1="266.6113" x2="491.1201" y1="177.8749" y2="177.8749"/><text fill="#000000" font-family="sans-serif" font-size="14" lengthAdjust="spacing" textLength="188.3984" x="268.3825" y="194.87">Connecting to the choosen</text><text fill="#000000" font-family="sans-serif" font-size="14" lengthAdjust="spacing" textLength="159.2363" x="282.9635" y="211.1669">"Speak No Evil" device</text></g><!--entity SD--><g class="entity" data-qualified-name="Release Collar.SD" data-source-line="27" id="ent0007"><ellipse cx="715.3344" cy="199.0028" fill="#F1F1F1" rx="148.2544" ry="39.1228" style="stroke:#181818;stroke-width:0.5;"/><text fill="#000000" font-family="sans-serif" font-size="14" font-weight="bold" lengthAdjust="spacing" textLength="83.8291" x="664.4141" y="177.9692">Connected</text><line style="stroke:#181818;stroke-width:1;" x1="584.1817" x2="846.4871" y1="181.271" y2="181.271"/><text fill="#000000" font-family="sans-serif" font-size="14" lengthAdjust="spacing" textLength="183.0527" x="614.8023" y="198.2661">- Start a service discovery</text><text fill="#000000" font-family="sans-serif" font-size="14" lengthAdjust="spacing" textLength="228.7646" x="591.9463" y="214.563">- Enable mandatory notifications</text></g><!--entity OP--><g class="entity" data-qualified-name="Release Collar.OP" data-source-line="33" id="ent0008"><ellipse cx="378.872" cy="282.9964" fill="#F1F1F1" rx="66.332" ry="15.6664" style="stroke:#181818;stroke-width:0.5;"/><text fill="#000000" font-family="sans-serif" font-size="14" font-weight="bold" lengthAdjust="spacing" textLength="92.1006" x="330.3847" y="287.6448">Open Collar</text></g><!--entity dis--><g class="entity" data-qualified-name="Release Collar.dis" data-source-line="36" id="ent0009"><ellipse cx="378.8672" cy="377.9951" fill="#F1F1F1" rx="137.2072" ry="44.4151" style="stroke:#181818;stroke-width:0.5;"/><text fill="#000000" font-family="sans-serif" font-size="14" font-weight="bold" lengthAdjust="spacing" textLength="87.0898" x="327.9417" y="352.4743">Disconnect</text><line style="stroke:#181818;stroke-width:1;" x1="261.0628" x2="496.6715" y1="355.776" y2="355.776"/><text fill="#000000" font-family="sans-serif" font-size="14" lengthAdjust="spacing" textLength="165.5459" x="288.7137" y="372.7712">Disconnect from device</text><line style="stroke:#181818;stroke-width:1;stroke-dasharray:1,2;" x1="242.8102" x2="514.9241" y1="380.0729" y2="380.0729"/><text fill="#000000" font-family="sans-serif" font-size="14" lengthAdjust="spacing" textLength="210.2803" x="266.3465" y="397.068">Running state do NOT change</text></g><!--entity a2--><g class="entity" data-qualified-name="a2" data-source-line="6" id="ent0002"><ellipse cx="37.3325" cy="217.35" fill="#F1F1F1" rx="8" ry="8" style="stroke:#181818;stroke-width:0.5;"/><path d="M37.3325,225.35 L37.3325,252.35 M24.3325,233.35 L50.3325,233.35 M37.3325,252.35 L24.3325,267.35 M37.3325,252.35 L50.3325,267.35" fill="none" style="stroke:#181818;stroke-width:0.5;"/><text fill="#000000" font-family="sans-serif" font-size="14" lengthAdjust="spacing" textLength="62.665" x="6" y="281.8451">Operator</text></g><!--link a2 to LF--><g class="link" data-entity-1="ent0002" data-entity-2="ent0004" data-link-type="dependency" data-source-line="45" id="lnk10"><path d="M69.07,214.95 C76.72,207.89 85.17,200.8 93.67,195 C152.67,154.7 222.2486,126.9092 280.5086,107.8092" fill="none" id="a2-to-LF" style="stroke:#181818;stroke-width:1;"/><polygon fill="#181818" points="286.21,105.94,276.4118,104.9428,281.4588,107.4976,278.904,112.5447,286.21,105.94" style="stroke:#181818;stroke-width:1;"/><text fill="#000000" font-family="sans-serif" font-size="13" lengthAdjust="spacing" textLength="70.1099" x="116.67" y="133.0669">Cmd: Scan</text></g><!--link LF to DD--><g class="link" data-entity-1="ent0004" data-entity-2="ent0005" data-link-type="dependency" data-source-line="46" id="lnk11"><path d="M501.57,81.09 C544.99,81.48 586.8502,81.8566 626.1702,82.2066" fill="none" id="LF-to-DD" style="stroke:#181818;stroke-width:1;stroke-dasharray:7,7;"/><polygon fill="#181818" points="632.17,82.26,623.206,78.18,627.1702,82.2155,623.1348,86.1797,632.17,82.26" style="stroke:#181818;stroke-width:1;"/></g><!--link a2 to CT--><g class="link" data-entity-1="ent0002" data-entity-2="ent0006" data-link-type="dependency" data-source-line="47" id="lnk12"><path d="M69.06,242.11 C113.71,235.01 192.8544,222.4222 262.4144,211.3622" fill="none" id="a2-to-CT" style="stroke:#181818;stroke-width:1;"/><polygon fill="#181818" points="268.34,210.42,258.8235,207.8829,263.402,211.2051,260.0798,215.7836,268.34,210.42" style="stroke:#181818;stroke-width:1;"/><text fill="#000000" font-family="sans-serif" font-size="13" lengthAdjust="spacing" textLength="40.1045" x="131.67" y="216.0669">Select</text></g><!--link CT to SD--><g class="link" data-entity-1="ent0006" data-entity-2="ent0007" data-link-type="dependency" data-source-line="48" id="lnk13"><path d="M501.57,195.18 C522.86,195.57 539.221,195.8631 561.111,196.2531" fill="none" id="CT-to-SD" style="stroke:#181818;stroke-width:1;stroke-dasharray:7,7;"/><polygon fill="#181818" points="567.11,196.36,558.1827,192.2003,562.1108,196.2709,558.0402,200.199,567.11,196.36" style="stroke:#181818;stroke-width:1;"/></g><!--link a2 to OP--><g class="link" data-entity-1="ent0002" data-entity-2="ent0008" data-link-type="dependency" data-source-line="50" id="lnk14"><path d="M69.12,256.46 C77.05,258.59 85.62,260.63 93.67,262 C168.04,274.71 248.6635,279.5249 306.5435,281.5049" fill="none" id="a2-to-OP" style="stroke:#181818;stroke-width:1;"/><polygon fill="#181818" points="312.54,281.71,303.682,277.4046,307.5429,281.5391,303.4085,285.4,312.54,281.71" style="stroke:#181818;stroke-width:1;"/><text fill="#000000" font-family="sans-serif" font-size="13" lengthAdjust="spacing" textLength="114.9243" x="94.67" y="258.0669">Cmd: Open Collar</text></g><!--link a2 to dis--><g class="link" data-entity-1="ent0002" data-entity-2="ent0009" data-link-type="dependency" data-source-line="51" id="lnk15"><path d="M69.09,282.32 C76.55,289.31 84.92,296.01 93.67,301 C142.83,329.08 196.7939,345.9638 248.8439,357.5738" fill="none" id="a2-to-dis" style="stroke:#181818;stroke-width:1;"/><polygon fill="#181818" points="254.7,358.88,246.7867,353.0166,249.8199,357.7915,245.045,360.8247,254.7,358.88" style="stroke:#181818;stroke-width:1;"/><text fill="#000000" font-family="sans-serif" font-size="13" lengthAdjust="spacing" textLength="106.5898" x="98.67" y="297.0669">Cmd:Disconnect</text></g><!--SRC=[RLB1Rk8m4BtxAqOSjgUYgj9UKCMXX3sXKW6tgeV1de2Ln1FP1Wcjzjztd88XakSGnVD6yvwVNsYiwz5Z1nvT4wY7tozA7QqXeAwF5p0KjBTzjEnKItM4oE3juHZ1M4zww2lKaJsiU_AOVZ00lYhLesxmG33PK4iO21RSjkWdy5U1r2cGJjtL7_WQ6gdUzlCLSmCr-znxbig7RKGVPJ-yhvQmrUYWzwmfX3mX0eqDci_amH7wVRh4sShCCF8z8g-gCNb86ps5Knj3MS2dvxFOaoIqDaJWEaDZDYZGBNPZkWKx9oR2ZijaLzowGxfMF1Be8tCWboScsvwmWG-6vTcsaojvWNfR5Qd9b9cVVvoMMmRoQMKszV8mitIuRmawT2Qz_0KSHrjRZIaN9R_NdtSL8a8YuwwnADabb6FHLT8mw2whlkDGU-uUtKWrbSg7pScvP6o868MAuMEz4tlH7Mxs_PDalmh1F6Lq1elEp8R8AJbEftC9pmsNTnL8OYx2v3-1uhTwIj-4ozWCga4CPEFX5sm8pUMsHBovaZpOSWEJ5J_eWmTFG_jEa14o_m40]--></g></svg>