<?plantuml 1.2026.1beta5?><svg xmlns="http://www.w3.org/2000/svg" xmlns:xlink="http://www.w3.org/1999/xlink" contentStyleType="text/css" data-diagram-type="DESCRIPTION" height="658px" preserveAspectRatio="none" style="width:540px;height:658px;background:#FFFFFF;" version="1.1" viewBox="0 0 540 658" width="540px" zoomAndPan="magnify"><defs/><g><!--cluster Recording Mode--><g class="cluster" data-qualified-name="Recording Mode" data-source-line="6" id="ent0002"><path d="M8.5,6 L137.3457,6 A3.75,3.75 0 0 1 139.8457,8.5 L146.8457,28.2969 L530.5,28.2969 A2.5,2.5 0 0 1 533,30.7969 L533,649.4 A2.5,2.5 0 0 1 530.5,651.9 L8.5,651.9 A2.5,2.5 0 0 1 6,649.4 L6,8.5 A2.5,2.5 0 0 1 8.5,6" fill="none" style="stroke:#000000;stroke-width:1.5;"/><line style="stroke:#000000;stroke-width:1.5;" x1="6" x2="146.8457" y1="28.2969" y2="28.2969"/><text fill="#000000" font-family="sans-serif" font-size="14" font-weight="bold" lengthAdjust="spacing" textLength="127.8457" x="10" y="20.9951">Recording Mode</text></g><!--entity le--><g class="entity" data-qualified-name="Recording Mode.le" data-source-line="7" id="ent0003"><ellipse cx="266.9978" cy="556.9996" fill="#F1F1F1" rx="130.3978" ry="78.8996" style="stroke:#181818;stroke-width:0.5;"/><text fill="#000000" font-family="sans-serif" font-size="14" font-weight="bold" lengthAdjust="spacing" textLength="139.3643" x="184.4112" y="512.0049">Low Energy Mode</text><line style="stroke:#181818;stroke-width:1;" x1="157.2931" x2="376.7026" y1="515.3067" y2="515.3067"/><text fill="#000000" font-family="sans-serif" font-size="14" lengthAdjust="spacing" textLength="140.9365" x="183.625" y="532.3018">- No more recording</text><text fill="#000000" font-family="sans-serif" font-size="14" lengthAdjust="spacing" textLength="129.377" x="189.4048" y="548.5987">- All hardware OFF</text><text fill="#000000" font-family="sans-serif" font-size="14" lengthAdjust="spacing" textLength="170.8711" x="168.6577" y="564.8956">- All GPIOs disconnected</text><line style="stroke:#181818;stroke-width:1;stroke-dasharray:1,2;" x1="140.0419" x2="393.9537" y1="572.1973" y2="572.1973"/><text fill="#000000" font-family="sans-serif" font-size="14" font-style="italic" lengthAdjust="spacing" textLength="190.9824" x="158.6021" y="589.1924">Device is only discoverable</text><text fill="#000000" font-family="sans-serif" font-size="14" font-style="italic" lengthAdjust="spacing" textLength="116.5664" x="195.8101" y="605.4893">and connectable</text></g><!--entity LB--><g class="entity" data-qualified-name="Recording Mode.LB" data-source-line="17" id="ent0004"><ellipse cx="99.0011" cy="305.4336" fill="#F1F1F1" rx="52.3911" ry="14.5236" style="stroke:#181818;stroke-width:0.5;"/><text fill="#000000" font-family="sans-serif" font-size="14" font-weight="bold" lengthAdjust="spacing" textLength="69.8496" x="64.0763" y="310.0821">Low Batt</text></g><!--entity DF--><g class="entity" data-qualified-name="Recording Mode.DF" data-source-line="21" id="ent0005"><ellipse cx="266.9995" cy="411.2836" fill="#F1F1F1" rx="51.1295" ry="14.5236" style="stroke:#181818;stroke-width:0.5;"/><text fill="#000000" font-family="sans-serif" font-size="14" font-weight="bold" lengthAdjust="spacing" textLength="68.0654" x="232.9668" y="415.9321">Disk Full</text></g><!--entity SU--><g class="entity" data-qualified-name="Recording Mode.SU" data-source-line="25" id="ent0006"><ellipse cx="178.9968" cy="55.5236" fill="#F1F1F1" rx="48.7368" ry="14.5236" style="stroke:#181818;stroke-width:0.5;"/><text fill="#000000" font-family="sans-serif" font-size="14" font-weight="bold" lengthAdjust="spacing" textLength="64.6816" x="146.656" y="60.1721">Start up</text></g><!--entity Rec--><g class="entity" data-qualified-name="Recording Mode.Rec" data-source-line="29" id="ent0007"><ellipse cx="287.9984" cy="168.2157" fill="#F1F1F1" rx="228.8784" ry="48.1757" style="stroke:#181818;stroke-width:0.5;"/><text fill="#000000" font-family="sans-serif" font-size="14" font-weight="bold" lengthAdjust="spacing" textLength="79.9053" x="248.0458" y="142.617">Recording</text><line style="stroke:#181818;stroke-width:1;" x1="86.1091" x2="489.8877" y1="145.9188" y2="145.9188"/><text fill="#000000" font-family="sans-serif" font-size="14" lengthAdjust="spacing" textLength="399.1436" x="86.2015" y="162.9139">The sound recording and proximity monitoring is enable.</text><text fill="#000000" font-family="sans-serif" font-size="14" lengthAdjust="spacing" textLength="333.334" x="121.3314" y="179.2108">It wait for a wake signal to save audio samples.</text></g><!--entity Sav--><g class="entity" data-qualified-name="Recording Mode.Sav" data-source-line="36" id="ent0008"><ellipse cx="288.0006" cy="305.4336" fill="#F1F1F1" rx="101.4806" ry="39.0336" style="stroke:#181818;stroke-width:0.5;"/><text fill="#000000" font-family="sans-serif" font-size="14" font-weight="bold" lengthAdjust="spacing" textLength="53.4434" x="255.1985" y="284.2545">Saving</text><line style="stroke:#181818;stroke-width:1;" x1="198.7892" x2="377.212" y1="287.5562" y2="287.5562"/><text fill="#000000" font-family="sans-serif" font-size="14" lengthAdjust="spacing" textLength="129.835" x="217.0027" y="304.5513">Audio samples are</text><text fill="#000000" font-family="sans-serif" font-size="14" lengthAdjust="spacing" textLength="155.4834" x="204.1785" y="320.8482">stored on the SD Card</text></g><!--entity CO--><g class="entity" data-qualified-name="Recording Mode.CO" data-source-line="43" id="ent0009"><ellipse cx="424.9979" cy="411.2796" fill="#F1F1F1" rx="72.0979" ry="16.8196" style="stroke:#181818;stroke-width:0.5;"/><text fill="#000000" font-family="sans-serif" font-size="14" font-weight="bold" lengthAdjust="spacing" textLength="111.6172" x="369.1893" y="415.928">Collar Opened</text></g><!--link Sav to DF--><g class="link" data-entity-1="ent0008" data-entity-2="ent0005" data-link-type="dependency" data-source-line="47" id="lnk10"><path d="M280.24,344.8 C276.59,362.83 273.6721,377.3196 271.0021,390.4896" fill="none" id="Sav-to-DF" style="stroke:#FF0000;stroke-width:1;stroke-dasharray:7,7;"/><polygon fill="#FF0000" points="269.81,396.37,275.5185,388.3442,270.8035,391.4697,267.678,386.7547,269.81,396.37" style="stroke:#FF0000;stroke-width:1;"/></g><!--link Rec to LB--><g class="link" data-entity-1="ent0007" data-entity-2="ent0004" data-link-type="dependency" data-source-line="48" id="lnk11"><path d="M224.28,214.81 C186.55,241.79 146.3698,270.539 121.8798,288.059" fill="none" id="Rec-to-LB" style="stroke:#FF0000;stroke-width:1;stroke-dasharray:7,7;"/><polygon fill="#FF0000" points="117,291.55,126.6471,289.5667,121.0665,288.6408,121.9924,283.0603,117,291.55" style="stroke:#FF0000;stroke-width:1;"/></g><!--link SU to Rec--><g class="link" data-entity-1="ent0006" data-entity-2="ent0007" data-link-type="dependency" data-source-line="49" id="lnk12"><path d="M191.93,69.65 C204.39,82.31 219.7909,97.944 238.0409,116.484" fill="none" id="SU-to-Rec" style="stroke:#008000;stroke-width:1;"/><polygon fill="#008000" points="242.25,120.76,238.787,111.54,238.7424,117.1967,233.0858,117.1521,242.25,120.76" style="stroke:#008000;stroke-width:1;"/></g><!--link Rec to CO--><g class="link" data-entity-1="ent0007" data-entity-2="ent0009" data-link-type="dependency" data-source-line="50" id="lnk13"><path d="M361.05,214.31 C378.82,228.77 395.9,246.32 407,266.39 C429.91,307.81 429.3439,360.018 427.1739,387.998" fill="none" id="Rec-to-CO" style="stroke:#008000;stroke-width:1;"/><polygon fill="#008000" points="426.71,393.98,431.3939,385.3162,427.0966,388.995,423.4179,384.6977,426.71,393.98" style="stroke:#008000;stroke-width:1;"/></g><!--link CO to le--><g class="link" data-entity-1="ent0009" data-entity-2="ent0003" data-link-type="dependency" data-source-line="52" id="lnk14"><path d="M407.79,427.94 C390.99,443.21 368.7285,463.4628 343.0685,486.8028" fill="none" id="CO-to-le" style="stroke:#008000;stroke-width:1;"/><polygon fill="#008000" points="338.63,490.84,347.9793,487.7432,342.3288,487.4756,342.5963,481.8251,338.63,490.84" style="stroke:#008000;stroke-width:1;"/></g><!--link SU to LB--><g class="link" data-entity-1="ent0006" data-entity-2="ent0004" data-link-type="dependency" data-source-line="53" id="lnk15"><path d="M137.57,63.44 C105.41,71.22 62.88,87.34 42,120.04 C18.95,156.13 29.87,175.33 42,216.39 C50.72,245.9 68.8556,270.2728 82.8356,286.5128" fill="none" id="SU-to-LB" style="stroke:#FF0000;stroke-width:1;"/><polygon fill="#FF0000" points="86.75,291.06,83.9098,281.6295,83.488,287.2706,77.8469,286.8488,86.75,291.06" style="stroke:#FF0000;stroke-width:1;"/></g><!--link DF to le--><g class="link" data-entity-1="ent0005" data-entity-2="ent0003" data-link-type="dependency" data-source-line="54" id="lnk16"><path d="M267,426.06 C267,438.5 267,451.86 267,471.88" fill="none" id="DF-to-le" style="stroke:#FF0000;stroke-width:2;"/><polygon fill="#FF0000" points="267,477.88,271,468.88,267,472.88,263,468.88,267,477.88" style="stroke:#FF0000;stroke-width:2;"/></g><!--link LB to le--><g class="link" data-entity-1="ent0004" data-entity-2="ent0003" data-link-type="dependency" data-source-line="55" id="lnk17"><path d="M108.27,320.2 C128.84,350.76 176.1698,421.0624 214.7698,478.4124" fill="none" id="LB-to-le" style="stroke:#FF0000;stroke-width:2;"/><polygon fill="#FF0000" points="218.12,483.39,216.4131,473.6902,215.3282,479.242,209.7763,478.1571,218.12,483.39" style="stroke:#FF0000;stroke-width:2;"/></g><!--link Rec to Sav--><g class="link" data-entity-1="ent0007" data-entity-2="ent0008" data-link-type="dependency" data-source-line="57" id="lnk18"><path d="M275.78,216.51 C274.91,232.81 274.6114,244.8608 275.9014,260.3308" fill="none" id="Rec-to-Sav" style="stroke:#008000;stroke-width:1;"/><polygon fill="#008000" points="276.4,266.31,279.6383,257.0087,275.9845,261.3273,271.6659,257.6735,276.4,266.31" style="stroke:#008000;stroke-width:1;"/></g><!--link Sav to Rec--><g class="link" data-entity-1="ent0008" data-entity-2="ent0007" data-link-type="dependency" data-source-line="58" id="lnk19"><path d="M300.29,266.31 C301.64,250.84 302.1981,238.8005 301.2781,222.5005" fill="none" id="Sav-to-Rec" style="stroke:#008000;stroke-width:1;"/><polygon fill="#008000" points="300.94,216.51,297.4535,225.7211,301.2218,221.5021,305.4408,225.2703,300.94,216.51" style="stroke:#008000;stroke-width:1;"/></g><?plantuml-src VP9DZzCm48Rl-HMZvR3jWOeB5q2LjWr1AnMAjkm9SPZ6iwaLnuvi9wL2_7V6QSXN0tDo_3upVcSoBfUwH8i5MDIvenBUlecYanG4L9J-0e9SQcNffT7HFIXwyU0DM9cTF0XfAMsKgCGqnupWxebIOuNK6NmsWkxWLmGSbQCK7N4-V6ykGdmuhdVc31yrsUpIu9tqcgF_W2y62cC9xD_Y0-r1AJYX5MTaO9ya4-dJryUzOwSkDLgpMn8TiEBepSXrJBLC2QG3ezNbcbEJnQEY8OPQG5kiatwCkjnjRhlSeFS3TCJ7oPYFfSiXgPHg4qRmuNaC7pnQ3rKvn_BF6CDFjmCSJlhRYS2PYXli9WsXtTAQdxAGl0w5qT8R6mIU4-amWHLq1Huzd55wU34Ma8yvrvEPHXMMnc5DW9MGuLYKYjngja6i9nrY_K_73yDom2lGAOvjak1V2PwxEiImvIMPUs-x7p-tDKgXXNr9caO92pQovArPmo9Ebl1AIKtlRCiiUBIjkDlSY8VdPJ2-Rh6hcbaYFKXkzEsUoQb-FoLk2ZHfZQneHkxVdp4NchawxtDPV1yEgwDHBHOo_uzDUsdcDMCcNFV3607Hxpy0?></g></svg>