<?plantuml 1.2026.1beta5?><svg xmlns="http://www.w3.org/2000/svg" xmlns:xlink="http://www.w3.org/1999/xlink" contentStyleType="text/css" data-diagram-type="SEQUENCE" height="1033px" preserveAspectRatio="none" style="width:914px;height:1033px;background:#FFFFFF;" version="1.1" viewBox="0 0 914 1033" width="914px" zoomAndPan="magnify"><defs/><g><rect fill="#F4F4F4" height="1021.9844" style="stroke:#181818;stroke-width:0.5;" width="635.1245" x="97" y="6"/><text fill="#000000" font-family="sans-serif" font-size="13" font-weight="bold" lengthAdjust="spacing" textLength="188.6968" x="320.2139" y="18.0669">Proximity Storage Thread</text><rect fill="none" height="146.6641" style="stroke:#000000;stroke-width:1.5;" width="647.1245" x="91" y="209.9609"/><rect fill="none" height="232.7344" style="stroke:#000000;stroke-width:1.5;" width="806.9497" x="91" y="556.2891"/><rect fill="none" height="46.2656" style="stroke:#000000;stroke-width:1.5;" width="647.1245" x="91" y="888.2891"/><g class="participant-lifeline" data-entity-uid="part1" data-qualified-name="Store" id="part1-lifeline"><g><title>ble_proximity_thread_store_to_file</title><rect fill="#000000" fill-opacity="0.00000" height="937.2578" width="8" x="244.1826" y="56.4297"/><line style="stroke:#181818;stroke-width:0.5;stroke-dasharray:5,5;" x1="248" x2="248" y1="56.4297" y2="993.6875"/></g></g><g class="participant-lifeline" data-entity-uid="part2" data-qualified-name="SD" id="part2-lifeline"><g><title>sdcard.c</title><rect fill="#000000" fill-opacity="0.00000" height="937.2578" width="8" x="667.501" y="56.4297"/><line style="stroke:#181818;stroke-width:0.5;stroke-dasharray:5,5;" x1="670.8774" x2="670.8774" y1="56.4297" y2="993.6875"/></g></g><g class="participant-lifeline" data-entity-uid="part3" data-qualified-name="BLE" id="part3-lifeline"><g><title>BLE Handler</title><rect fill="#000000" fill-opacity="0.00000" height="937.2578" width="8" x="814.0371" y="56.4297"/><line style="stroke:#181818;stroke-width:0.5;stroke-dasharray:5,5;" x1="817.1245" x2="817.1245" y1="56.4297" y2="993.6875"/></g></g><g class="participant participant-head" data-entity-uid="part1" data-qualified-name="Store" id="part1-head"><rect fill="#E3E3E3" height="30.2969" rx="2.5" ry="2.5" style="stroke:#181818;stroke-width:0.5;" width="254.3652" x="121" y="25.1328"/><text fill="#000000" font-family="sans-serif" font-size="14" lengthAdjust="spacing" textLength="240.3652" x="128" y="45.1279">ble_proximity_thread_store_to_file</text></g><g class="participant participant-tail" data-entity-uid="part1" data-qualified-name="Store" id="part1-tail"><rect fill="#E3E3E3" height="30.2969" rx="2.5" ry="2.5" style="stroke:#181818;stroke-width:0.5;" width="254.3652" x="121" y="992.6875"/><text fill="#000000" font-family="sans-serif" font-size="14" lengthAdjust="spacing" textLength="240.3652" x="128" y="1012.6826">ble_proximity_thread_store_to_file</text></g><g class="participant participant-head" data-entity-uid="part2" data-qualified-name="SD" id="part2-head"><rect fill="#E3E3E3" height="30.2969" rx="2.5" ry="2.5" style="stroke:#181818;stroke-width:0.5;" width="73.2471" x="634.8774" y="25.1328"/><text fill="#000000" font-family="sans-serif" font-size="14" lengthAdjust="spacing" textLength="59.2471" x="641.8774" y="45.1279">sdcard.c</text></g><g class="participant participant-tail" data-entity-uid="part2" data-qualified-name="SD" id="part2-tail"><rect fill="#E3E3E3" height="30.2969" rx="2.5" ry="2.5" style="stroke:#181818;stroke-width:0.5;" width="73.2471" x="634.8774" y="992.6875"/><text fill="#000000" font-family="sans-serif" font-size="14" lengthAdjust="spacing" textLength="59.2471" x="641.8774" y="1012.6826">sdcard.c</text></g><g class="participant participant-head" data-entity-uid="part3" data-qualified-name="BLE" id="part3-head"><rect fill="#E3E3E3" height="30.2969" rx="2.5" ry="2.5" style="stroke:#181818;stroke-width:0.5;" width="99.8252" x="768.1245" y="25.1328"/><text fill="#000000" font-family="sans-serif" font-size="14" lengthAdjust="spacing" textLength="85.8252" x="775.1245" y="45.1279">BLE Handler</text></g><g class="participant participant-tail" data-entity-uid="part3" data-qualified-name="BLE" id="part3-tail"><rect fill="#E3E3E3" height="30.2969" rx="2.5" ry="2.5" style="stroke:#181818;stroke-width:0.5;" width="99.8252" x="768.1245" y="992.6875"/><text fill="#000000" font-family="sans-serif" font-size="14" lengthAdjust="spacing" textLength="85.8252" x="775.1245" y="1012.6826">BLE Handler</text></g><rect fill="#EEEEEE" height="3" style="stroke:#EEEEEE;stroke-width:1;" width="907.9497" x="0" y="86.9961"/><line style="stroke:#000000;stroke-width:1;" x1="0" x2="907.9497" y1="86.9961" y2="86.9961"/><line style="stroke:#000000;stroke-width:1;" x1="0" x2="907.9497" y1="89.9961" y2="89.9961"/><rect fill="#EEEEEE" height="23.1328" style="stroke:#000000;stroke-width:2;" width="89.8481" x="409.0508" y="76.4297"/><text fill="#000000" font-family="sans-serif" font-size="13" font-weight="bold" lengthAdjust="spacing" textLength="71.3223" x="415.0508" y="92.4966">Idle State</text><g class="message" data-entity-1="part1" data-entity-2="part1" id="msg1"><line style="stroke:#181818;stroke-width:1;" x1="248.1826" x2="290.1826" y1="134.7617" y2="134.7617"/><line style="stroke:#181818;stroke-width:1;" x1="290.1826" x2="290.1826" y1="134.7617" y2="147.7617"/><line style="stroke:#181818;stroke-width:1;" x1="249.1826" x2="290.1826" y1="147.7617" y2="147.7617"/><polygon fill="#181818" points="259.1826,143.7617,249.1826,147.7617,259.1826,151.7617,255.1826,147.7617" style="stroke:#181818;stroke-width:1;"/><text fill="#000000" font-family="sans-serif" font-size="13" lengthAdjust="spacing" textLength="301.4819" x="255.1826" y="129.6958">k_sem_take(ble_file_access_sem, K_FOREVER)</text></g><path d="M5,114.5625 L5,154.5625 L244,154.5625 L244,124.5625 L234,114.5625 L5,114.5625" fill="#FAFAFA" style="stroke:#181818;stroke-width:0.5;"/><path d="M234,114.5625 L234,124.5625 L244,124.5625 L234,114.5625" fill="#FAFAFA" style="stroke:#181818;stroke-width:0.5;"/><text fill="#000000" font-family="sans-serif" font-size="13" lengthAdjust="spacing" textLength="218.1182" x="11" y="131.6294">Thread sleeps until a buffer is full</text><text fill="#000000" font-family="sans-serif" font-size="13" lengthAdjust="spacing" textLength="162.5" x="11" y="146.7622">or a flush timeout occurs</text><rect fill="#EEEEEE" height="3" style="stroke:#EEEEEE;stroke-width:1;" width="907.9497" x="0" y="180.3945"/><line style="stroke:#000000;stroke-width:1;" x1="0" x2="907.9497" y1="180.3945" y2="180.3945"/><line style="stroke:#000000;stroke-width:1;" x1="0" x2="907.9497" y1="183.3945" y2="183.3945"/><rect fill="#EEEEEE" height="23.1328" style="stroke:#000000;stroke-width:2;" width="277.1104" x="315.4197" y="169.8281"/><text fill="#000000" font-family="sans-serif" font-size="13" font-weight="bold" lengthAdjust="spacing" textLength="258.5845" x="321.4197" y="185.895">Phase 1: File preparation &amp; Header</text><path d="M91,209.9609 L155.4429,209.9609 L155.4429,217.0938 L145.4429,227.0938 L91,227.0938 L91,209.9609" fill="#EEEEEE" style="stroke:#000000;stroke-width:1.5;"/><rect fill="none" height="146.6641" style="stroke:#000000;stroke-width:1.5;" width="647.1245" x="91" y="209.9609"/><text fill="#000000" font-family="sans-serif" font-size="13" font-weight="bold" lengthAdjust="spacing" textLength="19.4429" x="106" y="223.0278">alt</text><text fill="#000000" font-family="sans-serif" font-size="11" font-weight="bold" lengthAdjust="spacing" textLength="218.1792" x="170.4429" y="222.1714">[is_proximity_file_opened == false]</text><g class="message" data-entity-1="part1" data-entity-2="part2" id="msg3"><polygon fill="#181818" points="659.501,244.2266,669.501,248.2266,659.501,252.2266,663.501,248.2266" style="stroke:#181818;stroke-width:1;"/><line style="stroke:#181818;stroke-width:1;" x1="248.1826" x2="665.501" y1="248.2266" y2="248.2266"/><text fill="#000000" font-family="sans-serif" font-size="13" lengthAdjust="spacing" textLength="192.937" x="255.1826" y="243.1606">sdcard_file_setup_and_open()</text></g><g class="message" data-entity-1="part2" data-entity-2="part1" id="msg4"><polygon fill="#181818" points="259.1826,273.3594,249.1826,277.3594,259.1826,281.3594,255.1826,277.3594" style="stroke:#181818;stroke-width:1;"/><line style="stroke:#181818;stroke-width:1;stroke-dasharray:2,2;" x1="253.1826" x2="670.501" y1="277.3594" y2="277.3594"/><text fill="#000000" font-family="sans-serif" font-size="13" lengthAdjust="spacing" textLength="52.3301" x="265.1826" y="272.2935">Success</text></g><g class="message" data-entity-1="part1" data-entity-2="part1" id="msg5"><line style="stroke:#181818;stroke-width:1;" x1="248.1826" x2="290.1826" y1="306.4922" y2="306.4922"/><line style="stroke:#181818;stroke-width:1;" x1="290.1826" x2="290.1826" y1="306.4922" y2="319.4922"/><line style="stroke:#181818;stroke-width:1;" x1="249.1826" x2="290.1826" y1="319.4922" y2="319.4922"/><polygon fill="#181818" points="259.1826,315.4922,249.1826,319.4922,259.1826,323.4922,255.1826,319.4922" style="stroke:#181818;stroke-width:1;"/><text fill="#000000" font-family="sans-serif" font-size="13" lengthAdjust="spacing" textLength="124.6045" x="255.1826" y="301.4263">Prepare file header</text></g><g class="message" data-entity-1="part1" data-entity-2="part2" id="msg6"><polygon fill="#181818" points="659.501,344.625,669.501,348.625,659.501,352.625,663.501,348.625" style="stroke:#181818;stroke-width:1;"/><line style="stroke:#181818;stroke-width:1;" x1="248.1826" x2="665.501" y1="348.625" y2="348.625"/><text fill="#000000" font-family="sans-serif" font-size="13" lengthAdjust="spacing" textLength="106.4756" x="255.1826" y="343.5591">fs_write(header)</text></g><rect fill="#EEEEEE" height="3" style="stroke:#EEEEEE;stroke-width:1;" width="907.9497" x="0" y="384.1914"/><line style="stroke:#000000;stroke-width:1;" x1="0" x2="907.9497" y1="384.1914" y2="384.1914"/><line style="stroke:#000000;stroke-width:1;" x1="0" x2="907.9497" y1="387.1914" y2="387.1914"/><rect fill="#EEEEEE" height="23.1328" style="stroke:#000000;stroke-width:2;" width="177.1157" x="365.417" y="373.625"/><text fill="#000000" font-family="sans-serif" font-size="13" font-weight="bold" lengthAdjust="spacing" textLength="158.5898" x="371.417" y="389.6919">Phase 2: Data writing</text><g class="message" data-entity-1="part1" data-entity-2="part1" id="msg7"><line style="stroke:#181818;stroke-width:1;" x1="248.1826" x2="290.1826" y1="427.8906" y2="427.8906"/><line style="stroke:#181818;stroke-width:1;" x1="290.1826" x2="290.1826" y1="427.8906" y2="440.8906"/><line style="stroke:#181818;stroke-width:1;" x1="249.1826" x2="290.1826" y1="440.8906" y2="440.8906"/><polygon fill="#181818" points="259.1826,436.8906,249.1826,440.8906,259.1826,444.8906,255.1826,440.8906" style="stroke:#181818;stroke-width:1;"/><text fill="#000000" font-family="sans-serif" font-size="13" lengthAdjust="spacing" textLength="275.1201" x="255.1826" y="422.8247">k_sem_take(file_access_sem, K_FOREVER)</text></g><path d="M542.1201,415.2578 L542.1201,440.2578 L815.1201,440.2578 L815.1201,425.2578 L805.1201,415.2578 L542.1201,415.2578" fill="#FAFAFA" style="stroke:#181818;stroke-width:0.5;"/><path d="M805.1201,415.2578 L805.1201,425.2578 L815.1201,425.2578 L805.1201,415.2578" fill="#FAFAFA" style="stroke:#181818;stroke-width:0.5;"/><text fill="#000000" font-family="sans-serif" font-size="13" lengthAdjust="spacing" textLength="252.2241" x="548.1201" y="432.3247">Prevents concurrent access to SD card</text><g class="message" data-entity-1="part1" data-entity-2="part1" id="msg9"><line style="stroke:#181818;stroke-width:1;" x1="248.1826" x2="290.1826" y1="470.0234" y2="470.0234"/><line style="stroke:#181818;stroke-width:1;" x1="290.1826" x2="290.1826" y1="470.0234" y2="483.0234"/><line style="stroke:#181818;stroke-width:1;" x1="249.1826" x2="290.1826" y1="483.0234" y2="483.0234"/><polygon fill="#181818" points="259.1826,479.0234,249.1826,483.0234,259.1826,487.0234,255.1826,483.0234" style="stroke:#181818;stroke-width:1;"/><text fill="#000000" font-family="sans-serif" font-size="13" lengthAdjust="spacing" textLength="159.396" x="255.1826" y="464.9575">Calculate bytes_to_write</text></g><g class="message" data-entity-1="part1" data-entity-2="part2" id="msg10"><polygon fill="#181818" points="659.501,508.1563,669.501,512.1563,659.501,516.1563,663.501,512.1563" style="stroke:#181818;stroke-width:1;"/><line style="stroke:#181818;stroke-width:1;" x1="248.1826" x2="665.501" y1="512.1563" y2="512.1563"/><text fill="#000000" font-family="sans-serif" font-size="13" lengthAdjust="spacing" textLength="399.3184" x="255.1826" y="507.0903">fs_write(proximity_storage_buffers[read_idx], bytes_to_write)</text></g><g class="message" data-entity-1="part2" data-entity-2="part1" id="msg11"><polygon fill="#181818" points="259.1826,537.2891,249.1826,541.2891,259.1826,545.2891,255.1826,541.2891" style="stroke:#181818;stroke-width:1;"/><line style="stroke:#181818;stroke-width:1;stroke-dasharray:2,2;" x1="253.1826" x2="670.501" y1="541.2891" y2="541.2891"/><text fill="#000000" font-family="sans-serif" font-size="13" lengthAdjust="spacing" textLength="37.248" x="265.1826" y="536.2231">w_res</text></g><path d="M91,556.2891 L155.4429,556.2891 L155.4429,563.4219 L145.4429,573.4219 L91,573.4219 L91,556.2891" fill="#EEEEEE" style="stroke:#000000;stroke-width:1.5;"/><rect fill="none" height="232.7344" style="stroke:#000000;stroke-width:1.5;" width="806.9497" x="91" y="556.2891"/><text fill="#000000" font-family="sans-serif" font-size="13" font-weight="bold" lengthAdjust="spacing" textLength="19.4429" x="106" y="569.356">alt</text><text fill="#000000" font-family="sans-serif" font-size="11" font-weight="bold" lengthAdjust="spacing" textLength="131.2856" x="170.4429" y="568.4995">[w_res == -ENOMEM]</text><g class="message" data-entity-1="part1" data-entity-2="part2" id="msg12"><polygon fill="#181818" points="659.501,590.5547,669.501,594.5547,659.501,598.5547,663.501,594.5547" style="stroke:#181818;stroke-width:1;"/><line style="stroke:#181818;stroke-width:1;" x1="248.1826" x2="665.501" y1="594.5547" y2="594.5547"/><text fill="#000000" font-family="sans-serif" font-size="13" lengthAdjust="spacing" textLength="120.1611" x="255.1826" y="589.4888">sdcard_file_close()</text></g><g class="message" data-entity-1="part1" data-entity-2="part3" id="msg13"><polygon fill="#181818" points="806.0371,619.6875,816.0371,623.6875,806.0371,627.6875,810.0371,623.6875" style="stroke:#181818;stroke-width:1;"/><line style="stroke:#181818;stroke-width:1;" x1="248.1826" x2="812.0371" y1="623.6875" y2="623.6875"/><text fill="#000000" font-family="sans-serif" font-size="13" lengthAdjust="spacing" textLength="220.0479" x="255.1826" y="618.6216">ble_update_status(ST_DISK_FULL)</text></g><g class="message" data-entity-1="part1" data-entity-2="part1" id="msg14"><line style="stroke:#181818;stroke-width:1;" x1="248.1826" x2="290.1826" y1="652.8203" y2="652.8203"/><line style="stroke:#181818;stroke-width:1;" x1="290.1826" x2="290.1826" y1="652.8203" y2="665.8203"/><line style="stroke:#181818;stroke-width:1;" x1="249.1826" x2="290.1826" y1="665.8203" y2="665.8203"/><polygon fill="#181818" points="259.1826,661.8203,249.1826,665.8203,259.1826,669.8203,255.1826,665.8203" style="stroke:#181818;stroke-width:1;"/><text fill="#000000" font-family="sans-serif" font-size="13" lengthAdjust="spacing" textLength="226.2622" x="255.1826" y="647.7544">put_device_in_power_save_mode()</text></g><line style="stroke:#000000;stroke-width:1;stroke-dasharray:2,2;" x1="91" x2="897.9497" y1="674.8203" y2="674.8203"/><text fill="#000000" font-family="sans-serif" font-size="11" font-weight="bold" lengthAdjust="spacing" textLength="157.2441" x="96" y="685.0308">[w_res != bytes_to_write]</text><g class="message" data-entity-1="part1" data-entity-2="part2" id="msg15"><polygon fill="#181818" points="659.501,705.7578,669.501,709.7578,659.501,713.7578,663.501,709.7578" style="stroke:#181818;stroke-width:1;"/><line style="stroke:#181818;stroke-width:1;" x1="248.1826" x2="665.501" y1="709.7578" y2="709.7578"/><text fill="#000000" font-family="sans-serif" font-size="13" lengthAdjust="spacing" textLength="120.1611" x="255.1826" y="704.6919">sdcard_file_close()</text></g><g class="message" data-entity-1="part1" data-entity-2="part3" id="msg16"><polygon fill="#181818" points="806.0371,734.8906,816.0371,738.8906,806.0371,742.8906,810.0371,738.8906" style="stroke:#181818;stroke-width:1;"/><line style="stroke:#181818;stroke-width:1;" x1="248.1826" x2="812.0371" y1="738.8906" y2="738.8906"/><text fill="#000000" font-family="sans-serif" font-size="13" lengthAdjust="spacing" textLength="196.9932" x="255.1826" y="733.8247">ble_update_status(ST_ERROR)</text></g><g class="message" data-entity-1="part1" data-entity-2="part1" id="msg17"><line style="stroke:#181818;stroke-width:1;" x1="248.1826" x2="290.1826" y1="768.0234" y2="768.0234"/><line style="stroke:#181818;stroke-width:1;" x1="290.1826" x2="290.1826" y1="768.0234" y2="781.0234"/><line style="stroke:#181818;stroke-width:1;" x1="249.1826" x2="290.1826" y1="781.0234" y2="781.0234"/><polygon fill="#181818" points="259.1826,777.0234,249.1826,781.0234,259.1826,785.0234,255.1826,781.0234" style="stroke:#181818;stroke-width:1;"/><text fill="#000000" font-family="sans-serif" font-size="13" lengthAdjust="spacing" textLength="226.2622" x="255.1826" y="762.9575">put_device_in_power_save_mode()</text></g><rect fill="#EEEEEE" height="3" style="stroke:#EEEEEE;stroke-width:1;" width="907.9497" x="0" y="816.5898"/><line style="stroke:#000000;stroke-width:1;" x1="0" x2="907.9497" y1="816.5898" y2="816.5898"/><line style="stroke:#000000;stroke-width:1;" x1="0" x2="907.9497" y1="819.5898" y2="819.5898"/><rect fill="#EEEEEE" height="23.1328" style="stroke:#000000;stroke-width:2;" width="215.6333" x="346.1582" y="806.0234"/><text fill="#000000" font-family="sans-serif" font-size="13" font-weight="bold" lengthAdjust="spacing" textLength="197.1074" x="352.1582" y="822.0903">Phase 3: File rotation logic</text><g class="message" data-entity-1="part1" data-entity-2="part1" id="msg18"><line style="stroke:#181818;stroke-width:1;" x1="248.1826" x2="290.1826" y1="860.2891" y2="860.2891"/><line style="stroke:#181818;stroke-width:1;" x1="290.1826" x2="290.1826" y1="860.2891" y2="873.2891"/><line style="stroke:#181818;stroke-width:1;" x1="249.1826" x2="290.1826" y1="873.2891" y2="873.2891"/><polygon fill="#181818" points="259.1826,869.2891,249.1826,873.2891,259.1826,877.2891,255.1826,873.2891" style="stroke:#181818;stroke-width:1;"/><text fill="#000000" font-family="sans-serif" font-size="13" lengthAdjust="spacing" textLength="209.2188" x="255.1826" y="855.2231">Calculate execution time (diff_t)</text></g><path d="M91,888.2891 L155.4429,888.2891 L155.4429,895.4219 L145.4429,905.4219 L91,905.4219 L91,888.2891" fill="#EEEEEE" style="stroke:#000000;stroke-width:1.5;"/><rect fill="none" height="46.2656" style="stroke:#000000;stroke-width:1.5;" width="647.1245" x="91" y="888.2891"/><text fill="#000000" font-family="sans-serif" font-size="13" font-weight="bold" lengthAdjust="spacing" textLength="19.4429" x="106" y="901.356">alt</text><text fill="#000000" font-family="sans-serif" font-size="11" font-weight="bold" lengthAdjust="spacing" textLength="358.6816" x="170.4429" y="900.4995">[diff_t &gt;= CONFIG_STORAGE_TIME_DIFF_THRESHOLD (1h)]</text><g class="message" data-entity-1="part1" data-entity-2="part2" id="msg19"><polygon fill="#181818" points="659.501,922.5547,669.501,926.5547,659.501,930.5547,663.501,926.5547" style="stroke:#181818;stroke-width:1;"/><line style="stroke:#181818;stroke-width:1;" x1="248.1826" x2="665.501" y1="926.5547" y2="926.5547"/><text fill="#000000" font-family="sans-serif" font-size="13" lengthAdjust="spacing" textLength="120.1611" x="255.1826" y="921.4888">sdcard_file_close()</text></g><g class="message" data-entity-1="part1" data-entity-2="part1" id="msg20"><line style="stroke:#181818;stroke-width:1;" x1="248.1826" x2="290.1826" y1="962.6875" y2="962.6875"/><line style="stroke:#181818;stroke-width:1;" x1="290.1826" x2="290.1826" y1="962.6875" y2="975.6875"/><line style="stroke:#181818;stroke-width:1;" x1="249.1826" x2="290.1826" y1="975.6875" y2="975.6875"/><polygon fill="#181818" points="259.1826,971.6875,249.1826,975.6875,259.1826,979.6875,255.1826,975.6875" style="stroke:#181818;stroke-width:1;"/><text fill="#000000" font-family="sans-serif" font-size="13" lengthAdjust="spacing" textLength="189.6997" x="255.1826" y="957.6216">k_sem_give(file_access_sem)</text></g><?plantuml-src hLDTRnen47o_Nx6bKiL9IPMaVK8YKXEEW0e17RGlRMKPtnvdnTWdVn3oxslxe7oKAbLLUF7Pi-lPcR5vuhAccgvWhAHYbLOh1AiT9kRNoPHgonclgRHJMXHSBk7cwk3yJcrs-zTNIR9G6sXDjThm5RSlCBDAqoN2lD98YnQyxNyC_wJUTuNMGY2fToN4HYWnlXA9LQJa0bj0JUo5nvMcO5GNxrbptajG5k0P9CUekr460oeBWJe2_NUITBimz3k-AxK8tMwInFvmUTjS11ru8WPNnD8dR0UAWGYXZA4nuU02FfF-9C--PdcQIEMR22njPpig685O6t3ISW4K5guiKGCtK3eXlakb_MOfdAd0yXKgPq4nvhI9pAOLDGZN7UZxEw7M6BIsN4bu1mFVtNSAZAcmlkE1Tf6Ygb5YuG5GKc4m0V_RpzRpWpMoDMY3rjN4gnFhsca3xy7bWH0p5wUEHoVjjeXff8WGMa8L6PwvjpJaMNEBxGQH1hyEvhtfG8zQ2W4JylIQAQyQelcoif7S6gKrm9Jq4ck_XgOCh0hCWXfdhhgdWZaHuh5uiMX262FzG-ZHM7iZJ9DxqjXkliL8ysBpu-AaLvgSQFrCD9h6shWCFbvcZvDnDdx5IIQKmPs1ErJ8VWT2V5rT-54yCsgTQS_cf3USUS6-Z4RfUKzhPqc1QywGS4bgzOoQ6Bf6ib95k0TzkBOSttHF9Vg_LBCyd-J_IlCeOn-sRqehspmeePQSdO_Qtd_S87CH7Xuhj0jUbiIcqQLc3RTTk9yyzeSFP3QVv9yUCZ8VZZClShzFveCycmqcenwqhwlqBxM9lFyG_oLV_nR_z2S0?></g></svg>